<?xml version="1.0" encoding="UTF-8" standalone="no"?>
<!DOCTYPE svg PUBLIC "-//W3C//DTD SVG 1.1//EN"
 "http://www.w3.org/Graphics/SVG/1.1/DTD/svg11.dtd">
<!-- Generated by graphviz version 2.43.0 (0)
 -->
<!-- Title: build/ads1115/ads1115/detail/ads1115_export.h Pages: 1 -->
<!--zoomable 229 -->
<svg id="main" version="1.1" xmlns="http://www.w3.org/2000/svg" xmlns:xlink="http://www.w3.org/1999/xlink" xml:space="preserve" onload="init(evt)">
<style type="text/css"><![CDATA[
.edge:hover path { stroke: red; }
.edge:hover polygon { stroke: red; fill: red; }
]]></style>
<script type="text/javascript"><![CDATA[
var edges = document.getElementsByTagName('g');
if (edges && edges.length) {
  for (var i=0;i<edges.length;i++) {
    if (edges[i].id.substr(0,4)=='edge') {
      edges[i].setAttribute('class','edge');
    }
  }
}
]]></script>
        <defs>
                <circle id="rim" cx="0" cy="0" r="7"/>
                <circle id="rim2" cx="0" cy="0" r="3.5"/>
                <g id="zoomPlus">
                        <use xlink:href="#rim" fill="#404040">
                                <set attributeName="fill" to="#808080" begin="zoomplus.mouseover" end="zoomplus.mouseout"/>
                        </use>
                        <path d="M-4,0h8M0,-4v8" fill="none" stroke="white" stroke-width="1.5" pointer-events="none"/>
                </g>
                <g id="zoomMin">
                        <use xlink:href="#rim" fill="#404040">
                                <set attributeName="fill" to="#808080" begin="zoomminus.mouseover" end="zoomminus.mouseout"/>
                        </use>
                        <path d="M-4,0h8" fill="none" stroke="white" stroke-width="1.5" pointer-events="none"/>
                </g>
                <g id="dirArrow">
                        <path fill="none" stroke="white" stroke-width="1.5" d="M0,-3.0v7 M-2.5,-0.5L0,-3.0L2.5,-0.5"/>
                </g>
               <g id="resetDef">
                       <use xlink:href="#rim2" fill="#404040">
                               <set attributeName="fill" to="#808080" begin="reset.mouseover" end="reset.mouseout"/>
                       </use>
               </g>
        </defs>

<script type="text/javascript">
var viewWidth = 783;
var viewHeight = 229;
var sectionId = 'dynsection-0';
</script>
<script xlink:href="svgpan.js"/>
<svg id="graph" class="graph">
<g id="viewport">
<title>build/ads1115/ads1115/detail/ads1115_export.h</title>
<polygon fill="white" stroke="transparent" points="-4,4 -4,-225 779.23,-225 779.23,4 -4,4"/>
<!-- Node1 -->
<g id="node1" class="node">
<title>Node1</title>
<g id="a_node1"><a xlink:title=" ">
<polygon fill="#bfbfbf" stroke="black" points="328.73,-190.5 328.73,-220.5 465.73,-220.5 465.73,-190.5 328.73,-190.5"/>
<text text-anchor="start" x="336.73" y="-208.5" font-family="Helvetica,sans-Serif" font-size="10.00">build/ads1115/ads1115</text>
<text text-anchor="middle" x="397.23" y="-197.5" font-family="Helvetica,sans-Serif" font-size="10.00">/detail/ads1115_export.h</text>
</a>
</g>
</g>
<!-- Node2 -->
<g id="node2" class="node">
<title>Node2</title>
<g id="a_node2"><a xlink:href="ads1115_8hpp.html" target="_top" xlink:title=" ">
<polygon fill="white" stroke="black" points="327.23,-56.5 327.23,-86.5 467.23,-86.5 467.23,-56.5 327.23,-56.5"/>
<text text-anchor="start" x="335.23" y="-74.5" font-family="Helvetica,sans-Serif" font-size="10.00">ads1115/include/ads1115</text>
<text text-anchor="middle" x="397.23" y="-63.5" font-family="Helvetica,sans-Serif" font-size="10.00">/ads1115.hpp</text>
</a>
</g>
</g>
<!-- Node1&#45;&gt;Node2 -->
<g id="edge1" class="edge">
<title>Node1&#45;&gt;Node2</title>
<path fill="none" stroke="midnightblue" d="M397.23,-180.02C397.23,-152.51 397.23,-108.79 397.23,-86.52"/>
<polygon fill="midnightblue" stroke="midnightblue" points="393.73,-180.37 397.23,-190.37 400.73,-180.37 393.73,-180.37"/>
</g>
<!-- Node5 -->
<g id="node5" class="node">
<title>Node5</title>
<g id="a_node5"><a xlink:href="config_8hpp.html" target="_top" xlink:title=" ">
<polygon fill="white" stroke="black" points="188.23,-123.5 188.23,-153.5 328.23,-153.5 328.23,-123.5 188.23,-123.5"/>
<text text-anchor="start" x="196.23" y="-141.5" font-family="Helvetica,sans-Serif" font-size="10.00">ads1115/include/ads1115</text>
<text text-anchor="middle" x="258.23" y="-130.5" font-family="Helvetica,sans-Serif" font-size="10.00">/config.hpp</text>
</a>
</g>
</g>
<!-- Node1&#45;&gt;Node5 -->
<g id="edge4" class="edge">
<title>Node1&#45;&gt;Node5</title>
<path fill="none" stroke="midnightblue" d="M357.95,-186.13C335.86,-175.8 308.72,-163.11 288.33,-153.58"/>
<polygon fill="midnightblue" stroke="midnightblue" points="356.53,-189.33 367.07,-190.4 359.49,-182.99 356.53,-189.33"/>
</g>
<!-- Node8 -->
<g id="node8" class="node">
<title>Node8</title>
<g id="a_node8"><a xlink:href="threshold_8hpp.html" target="_top" xlink:title=" ">
<polygon fill="white" stroke="black" points="452.23,-123.5 452.23,-153.5 592.23,-153.5 592.23,-123.5 452.23,-123.5"/>
<text text-anchor="start" x="460.23" y="-141.5" font-family="Helvetica,sans-Serif" font-size="10.00">ads1115/include/ads1115</text>
<text text-anchor="middle" x="522.23" y="-130.5" font-family="Helvetica,sans-Serif" font-size="10.00">/threshold.hpp</text>
</a>
</g>
</g>
<!-- Node1&#45;&gt;Node8 -->
<g id="edge10" class="edge">
<title>Node1&#45;&gt;Node8</title>
<path fill="none" stroke="midnightblue" d="M433.36,-185.71C453.07,-175.46 477.07,-162.98 495.16,-153.58"/>
<polygon fill="midnightblue" stroke="midnightblue" points="431.61,-182.68 424.35,-190.4 434.84,-188.89 431.61,-182.68"/>
</g>
<!-- Node3 -->
<g id="node3" class="node">
<title>Node3</title>
<g id="a_node3"><a xlink:href="ads1115_2src_2ads1115_8cpp.html" target="_top" xlink:title=" ">
<polygon fill="white" stroke="black" points="278.23,-0.5 278.23,-19.5 418.23,-19.5 418.23,-0.5 278.23,-0.5"/>
<text text-anchor="middle" x="348.23" y="-7.5" font-family="Helvetica,sans-Serif" font-size="10.00">ads1115/src/ads1115.cpp</text>
</a>
</g>
</g>
<!-- Node2&#45;&gt;Node3 -->
<g id="edge2" class="edge">
<title>Node2&#45;&gt;Node3</title>
<path fill="none" stroke="midnightblue" d="M379.04,-48.4C370.81,-38.41 361.56,-27.18 355.36,-19.66"/>
<polygon fill="midnightblue" stroke="midnightblue" points="376.56,-50.9 385.62,-56.4 381.96,-46.46 376.56,-50.9"/>
</g>
<!-- Node4 -->
<g id="node4" class="node">
<title>Node4</title>
<g id="a_node4"><a xlink:href="tests_2src_2ads1115_8cpp.html" target="_top" xlink:title=" ">
<polygon fill="white" stroke="black" points="57.23,-0.5 57.23,-19.5 179.23,-19.5 179.23,-0.5 57.23,-0.5"/>
<text text-anchor="middle" x="118.23" y="-7.5" font-family="Helvetica,sans-Serif" font-size="10.00">tests/src/ads1115.cpp</text>
</a>
</g>
</g>
<!-- Node2&#45;&gt;Node4 -->
<g id="edge3" class="edge">
<title>Node2&#45;&gt;Node4</title>
<path fill="none" stroke="midnightblue" d="M321.48,-54.34C268.76,-43.1 200.57,-28.56 158.12,-19.51"/>
<polygon fill="midnightblue" stroke="midnightblue" points="320.96,-57.81 331.47,-56.47 322.42,-50.97 320.96,-57.81"/>
</g>
<!-- Node5&#45;&gt;Node2 -->
<g id="edge5" class="edge">
<title>Node5&#45;&gt;Node2</title>
<path fill="none" stroke="midnightblue" d="M297.51,-119.13C319.6,-108.8 346.74,-96.11 367.13,-86.58"/>
<polygon fill="midnightblue" stroke="midnightblue" points="295.97,-115.99 288.39,-123.4 298.93,-122.33 295.97,-115.99"/>
</g>
<!-- Node5&#45;&gt;Node3 -->
<g id="edge6" class="edge">
<title>Node5&#45;&gt;Node3</title>
<path fill="none" stroke="midnightblue" d="M274.24,-115C294.41,-86.65 328.11,-39.28 341.98,-19.79"/>
<polygon fill="midnightblue" stroke="midnightblue" points="271.15,-113.3 268.21,-123.48 276.86,-117.36 271.15,-113.3"/>
</g>
<!-- Node5&#45;&gt;Node4 -->
<g id="edge8" class="edge">
<title>Node5&#45;&gt;Node4</title>
<path fill="none" stroke="midnightblue" d="M177.73,-132.24C112.4,-126.09 27.71,-113.21 6.23,-87 -2.5,-76.34 -1.48,-67.41 6.23,-56 19.14,-36.9 41.63,-25.91 63.09,-19.58"/>
<polygon fill="midnightblue" stroke="midnightblue" points="177.77,-135.76 188.04,-133.17 178.4,-128.79 177.77,-135.76"/>
</g>
<!-- Node6 -->
<g id="node6" class="node">
<title>Node6</title>
<g id="a_node6"><a xlink:href="ads1115_2src_2config_8cpp.html" target="_top" xlink:title=" ">
<polygon fill="white" stroke="black" points="15.23,-62 15.23,-81 143.23,-81 143.23,-62 15.23,-62"/>
<text text-anchor="middle" x="79.23" y="-69" font-family="Helvetica,sans-Serif" font-size="10.00">ads1115/src/config.cpp</text>
</a>
</g>
</g>
<!-- Node5&#45;&gt;Node6 -->
<g id="edge7" class="edge">
<title>Node5&#45;&gt;Node6</title>
<path fill="none" stroke="midnightblue" d="M209.89,-119.95C175.12,-107.32 129.77,-90.85 102.66,-81.01"/>
<polygon fill="midnightblue" stroke="midnightblue" points="208.8,-123.27 219.39,-123.4 211.19,-116.69 208.8,-123.27"/>
</g>
<!-- Node7 -->
<g id="node7" class="node">
<title>Node7</title>
<g id="a_node7"><a xlink:href="tests_2src_2config_8cpp.html" target="_top" xlink:title=" ">
<polygon fill="white" stroke="black" points="161.23,-62 161.23,-81 271.23,-81 271.23,-62 161.23,-62"/>
<text text-anchor="middle" x="216.23" y="-69" font-family="Helvetica,sans-Serif" font-size="10.00">tests/src/config.cpp</text>
</a>
</g>
</g>
<!-- Node5&#45;&gt;Node7 -->
<g id="edge9" class="edge">
<title>Node5&#45;&gt;Node7</title>
<path fill="none" stroke="midnightblue" d="M243.68,-114.97C236.15,-103.33 227.41,-89.8 221.85,-81.19"/>
<polygon fill="midnightblue" stroke="midnightblue" points="240.75,-116.9 249.12,-123.4 246.63,-113.1 240.75,-116.9"/>
</g>
<!-- Node8&#45;&gt;Node2 -->
<g id="edge11" class="edge">
<title>Node8&#45;&gt;Node2</title>
<path fill="none" stroke="midnightblue" d="M486.11,-118.71C466.39,-108.46 442.39,-95.98 424.3,-86.58"/>
<polygon fill="midnightblue" stroke="midnightblue" points="484.62,-121.89 495.11,-123.4 487.85,-115.68 484.62,-121.89"/>
</g>
<!-- Node9 -->
<g id="node9" class="node">
<title>Node9</title>
<g id="a_node9"><a xlink:href="ads1115_2src_2threshold_8cpp.html" target="_top" xlink:title=" ">
<polygon fill="white" stroke="black" points="631.23,-62 631.23,-81 775.23,-81 775.23,-62 631.23,-62"/>
<text text-anchor="middle" x="703.23" y="-69" font-family="Helvetica,sans-Serif" font-size="10.00">ads1115/src/threshold.cpp</text>
</a>
</g>
</g>
<!-- Node8&#45;&gt;Node9 -->
<g id="edge12" class="edge">
<title>Node8&#45;&gt;Node9</title>
<path fill="none" stroke="midnightblue" d="M571.11,-119.95C606.27,-107.32 652.13,-90.85 679.54,-81.01"/>
<polygon fill="midnightblue" stroke="midnightblue" points="569.73,-116.72 561.51,-123.4 572.1,-123.31 569.73,-116.72"/>
</g>
<!-- Node10 -->
<g id="node10" class="node">
<title>Node10</title>
<g id="a_node10"><a xlink:href="tests_2src_2threshold_8cpp.html" target="_top" xlink:title=" ">
<polygon fill="white" stroke="black" points="485.73,-62 485.73,-81 612.73,-81 612.73,-62 485.73,-62"/>
<text text-anchor="middle" x="549.23" y="-69" font-family="Helvetica,sans-Serif" font-size="10.00">tests/src/threshold.cpp</text>
</a>
</g>
</g>
<!-- Node8&#45;&gt;Node10 -->
<g id="edge13" class="edge">
<title>Node8&#45;&gt;Node10</title>
<path fill="none" stroke="midnightblue" d="M532.02,-113.94C536.75,-102.54 542.15,-89.55 545.62,-81.19"/>
<polygon fill="midnightblue" stroke="midnightblue" points="528.69,-112.82 528.09,-123.4 535.16,-115.5 528.69,-112.82"/>
</g>
</g>
</svg>
        <g id="navigator" transform="translate(0 0)" fill="#404254">
                <rect fill="#f2f5e9" fill-opacity="0.5" stroke="#606060" stroke-width=".5" x="0" y="0" width="60" height="60"/>
                <use id="zoomplus" xlink:href="#zoomPlus" x="17" y="9" onmousedown="handleZoom(evt,'in')"/>
                <use id="zoomminus" xlink:href="#zoomMin" x="42" y="9" onmousedown="handleZoom(evt,'out')"/>
                <use id="reset" xlink:href="#resetDef" x="30" y="36" onmousedown="handleReset()"/>
                <g id="arrowUp" xlink:href="#dirArrow" transform="translate(30 24)" onmousedown="handlePan(0,-1)">
                  <use xlink:href="#rim" fill="#404040">
                        <set attributeName="fill" to="#808080" begin="arrowUp.mouseover" end="arrowUp.mouseout"/>
                  </use>
                  <path fill="none" stroke="white" stroke-width="1.5" d="M0,-3.0v7 M-2.5,-0.5L0,-3.0L2.5,-0.5"/>
                </g>
                <g id="arrowRight" xlink:href="#dirArrow" transform="rotate(90) translate(36 -43)" onmousedown="handlePan(1,0)">
                  <use xlink:href="#rim" fill="#404040">
                        <set attributeName="fill" to="#808080" begin="arrowRight.mouseover" end="arrowRight.mouseout"/>
                  </use>
                  <path fill="none" stroke="white" stroke-width="1.5" d="M0,-3.0v7 M-2.5,-0.5L0,-3.0L2.5,-0.5"/>
                </g>
                <g id="arrowDown" xlink:href="#dirArrow" transform="rotate(180) translate(-30 -48)" onmousedown="handlePan(0,1)">
                  <use xlink:href="#rim" fill="#404040">
                        <set attributeName="fill" to="#808080" begin="arrowDown.mouseover" end="arrowDown.mouseout"/>
                  </use>
                  <path fill="none" stroke="white" stroke-width="1.5" d="M0,-3.0v7 M-2.5,-0.5L0,-3.0L2.5,-0.5"/>
                </g>
                <g id="arrowLeft" xlink:href="#dirArrow" transform="rotate(270) translate(-36 17)" onmousedown="handlePan(-1,0)">
                  <use xlink:href="#rim" fill="#404040">
                        <set attributeName="fill" to="#808080" begin="arrowLeft.mouseover" end="arrowLeft.mouseout"/>
                  </use>
                  <path fill="none" stroke="white" stroke-width="1.5" d="M0,-3.0v7 M-2.5,-0.5L0,-3.0L2.5,-0.5"/>
                </g>
        </g>
        <svg viewBox="0 0 15 15" width="100%" height="30px" preserveAspectRatio="xMaxYMin meet">
         <g id="arrow_out" transform="scale(0.3 0.3)">
          <a xlink:href="ads1115__export_8h__dep__incl_org.svg" target="_base">
           <rect id="button" ry="5" rx="5" y="6" x="6" height="38" width="38"
                fill="#f2f5e9" fill-opacity="0.5" stroke="#606060" stroke-width="1.0"/>
           <path id="arrow"
             d="M 11.500037,31.436501 C 11.940474,20.09759 22.043105,11.32322 32.158766,21.979434 L 37.068811,17.246167 C 37.068811,17.246167 37.088388,32 37.088388,32 L 22.160133,31.978069 C 22.160133,31.978069 26.997745,27.140456 26.997745,27.140456 C 18.528582,18.264221 13.291696,25.230495 11.500037,31.436501 z"
             style="fill:#404040;"/>
          </a>
         </g>
        </svg>
</svg>
