<?xml version="1.0" encoding="UTF-8" standalone="no"?>
<!DOCTYPE svg PUBLIC "-//W3C//DTD SVG 1.1//EN"
 "http://www.w3.org/Graphics/SVG/1.1/DTD/svg11.dtd">
<!-- Generated by graphviz version 2.43.0 (0)
 -->
<!-- Title: ads1115/include/ads1115/ads1115.hpp Pages: 1 -->
<svg width="595pt" height="218pt"
 viewBox="0.00 0.00 595.00 218.00" xmlns="http://www.w3.org/2000/svg" xmlns:xlink="http://www.w3.org/1999/xlink">
<g id="graph0" class="graph" transform="scale(1 1) rotate(0) translate(4 214)">
<title>ads1115/include/ads1115/ads1115.hpp</title>
<polygon fill="white" stroke="transparent" points="-4,4 -4,-214 591,-214 591,4 -4,4"/>
<!-- Node1 -->
<g id="node1" class="node">
<title>Node1</title>
<g id="a_node1"><a xlink:title=" ">
<polygon fill="#bfbfbf" stroke="black" points="237,-179.5 237,-209.5 377,-209.5 377,-179.5 237,-179.5"/>
<text text-anchor="start" x="245" y="-197.5" font-family="Helvetica,sans-Serif" font-size="10.00">ads1115/include/ads1115</text>
<text text-anchor="middle" x="307" y="-186.5" font-family="Helvetica,sans-Serif" font-size="10.00">/ads1115.hpp</text>
</a>
</g>
</g>
<!-- Node2 -->
<g id="node2" class="node">
<title>Node2</title>
<g id="a_node2"><a xlink:href="config_8hpp.html" target="_top" xlink:title=" ">
<polygon fill="white" stroke="black" points="184.5,-123.5 184.5,-142.5 295.5,-142.5 295.5,-123.5 184.5,-123.5"/>
<text text-anchor="middle" x="240" y="-130.5" font-family="Helvetica,sans-Serif" font-size="10.00">ads1115/config.hpp</text>
</a>
</g>
</g>
<!-- Node1&#45;&gt;Node2 -->
<g id="edge1" class="edge">
<title>Node1&#45;&gt;Node2</title>
<path fill="none" stroke="midnightblue" d="M291.12,-179.4C280.98,-170.4 267.84,-158.72 257.41,-149.47"/>
<polygon fill="midnightblue" stroke="midnightblue" points="259.55,-146.68 249.75,-142.66 254.9,-151.92 259.55,-146.68"/>
</g>
<!-- Node3 -->
<g id="node3" class="node">
<title>Node3</title>
<g id="a_node3"><a xlink:href="ads1115__export_8h.html" target="_top" xlink:title=" ">
<polygon fill="white" stroke="black" points="84.5,-56.5 84.5,-86.5 217.5,-86.5 217.5,-56.5 84.5,-56.5"/>
<text text-anchor="start" x="92.5" y="-74.5" font-family="Helvetica,sans-Serif" font-size="10.00">ads1115/detail/ads1115</text>
<text text-anchor="middle" x="151" y="-63.5" font-family="Helvetica,sans-Serif" font-size="10.00">_export.h</text>
</a>
</g>
</g>
<!-- Node1&#45;&gt;Node3 -->
<g id="edge7" class="edge">
<title>Node1&#45;&gt;Node3</title>
<path fill="none" stroke="midnightblue" d="M237.63,-179.44C215.17,-171.89 191.77,-160.41 175,-143 163.02,-130.56 157.01,-111.91 154,-96.91"/>
<polygon fill="midnightblue" stroke="midnightblue" points="157.4,-96.06 152.29,-86.78 150.5,-97.22 157.4,-96.06"/>
</g>
<!-- Node7 -->
<g id="node7" class="node">
<title>Node7</title>
<g id="a_node7"><a xlink:href="threshold_8hpp.html" target="_top" xlink:title=" ">
<polygon fill="white" stroke="black" points="0,-123.5 0,-142.5 128,-142.5 128,-123.5 0,-123.5"/>
<text text-anchor="middle" x="64" y="-130.5" font-family="Helvetica,sans-Serif" font-size="10.00">ads1115/threshold.hpp</text>
</a>
</g>
</g>
<!-- Node1&#45;&gt;Node7 -->
<g id="edge8" class="edge">
<title>Node1&#45;&gt;Node7</title>
<path fill="none" stroke="midnightblue" d="M249.72,-179.47C206.61,-168.92 148.36,-154.66 108.66,-144.94"/>
<polygon fill="midnightblue" stroke="midnightblue" points="109.29,-141.49 98.74,-142.51 107.62,-148.28 109.29,-141.49"/>
</g>
<!-- Node8 -->
<g id="node8" class="node">
<title>Node8</title>
<g id="a_node8"><a xlink:title=" ">
<polygon fill="white" stroke="#bfbfbf" points="313.5,-123.5 313.5,-142.5 436.5,-142.5 436.5,-123.5 313.5,-123.5"/>
<text text-anchor="middle" x="375" y="-130.5" font-family="Helvetica,sans-Serif" font-size="10.00">i2c&#45;device/device.hpp</text>
</a>
</g>
</g>
<!-- Node1&#45;&gt;Node8 -->
<g id="edge11" class="edge">
<title>Node1&#45;&gt;Node8</title>
<path fill="none" stroke="midnightblue" d="M323.12,-179.4C333.4,-170.4 346.75,-158.72 357.33,-149.47"/>
<polygon fill="midnightblue" stroke="midnightblue" points="359.88,-151.88 365.11,-142.66 355.27,-146.61 359.88,-151.88"/>
</g>
<!-- Node9 -->
<g id="node9" class="node">
<title>Node9</title>
<g id="a_node9"><a xlink:title=" ">
<polygon fill="white" stroke="#bfbfbf" points="455,-123.5 455,-142.5 501,-142.5 501,-123.5 455,-123.5"/>
<text text-anchor="middle" x="478" y="-130.5" font-family="Helvetica,sans-Serif" font-size="10.00">cstdio</text>
</a>
</g>
</g>
<!-- Node1&#45;&gt;Node9 -->
<g id="edge12" class="edge">
<title>Node1&#45;&gt;Node9</title>
<path fill="none" stroke="midnightblue" d="M347.52,-179.4C377.26,-169.05 417.13,-155.18 444.94,-145.5"/>
<polygon fill="midnightblue" stroke="midnightblue" points="446.31,-148.73 454.6,-142.14 444.01,-142.12 446.31,-148.73"/>
</g>
<!-- Node10 -->
<g id="node10" class="node">
<title>Node10</title>
<g id="a_node10"><a xlink:title=" ">
<polygon fill="white" stroke="#bfbfbf" points="519,-123.5 519,-142.5 587,-142.5 587,-123.5 519,-123.5"/>
<text text-anchor="middle" x="553" y="-130.5" font-family="Helvetica,sans-Serif" font-size="10.00">filesystem</text>
</a>
</g>
</g>
<!-- Node1&#45;&gt;Node10 -->
<g id="edge13" class="edge">
<title>Node1&#45;&gt;Node10</title>
<path fill="none" stroke="midnightblue" d="M364.99,-179.47C409.12,-168.8 468.92,-154.34 509.12,-144.61"/>
<polygon fill="midnightblue" stroke="midnightblue" points="510,-148 518.9,-142.25 508.36,-141.2 510,-148"/>
</g>
<!-- Node2&#45;&gt;Node3 -->
<g id="edge2" class="edge">
<title>Node2&#45;&gt;Node3</title>
<path fill="none" stroke="midnightblue" d="M227.25,-123.48C215.08,-115.34 196.31,-102.79 180.44,-92.18"/>
<polygon fill="midnightblue" stroke="midnightblue" points="182.23,-89.17 171.98,-86.52 178.34,-94.99 182.23,-89.17"/>
</g>
<!-- Node4 -->
<g id="node4" class="node">
<title>Node4</title>
<g id="a_node4"><a xlink:href="parameters_8hpp.html" target="_top" xlink:title=" ">
<polygon fill="white" stroke="black" points="274,-62 274,-81 412,-81 412,-62 274,-62"/>
<text text-anchor="middle" x="343" y="-69" font-family="Helvetica,sans-Serif" font-size="10.00">ads1115/parameters.hpp</text>
</a>
</g>
</g>
<!-- Node2&#45;&gt;Node4 -->
<g id="edge3" class="edge">
<title>Node2&#45;&gt;Node4</title>
<path fill="none" stroke="midnightblue" d="M254.76,-123.48C271.66,-113.71 299.58,-97.58 319.49,-86.08"/>
<polygon fill="midnightblue" stroke="midnightblue" points="321.36,-89.04 328.27,-81.01 317.86,-82.98 321.36,-89.04"/>
</g>
<!-- Node5 -->
<g id="node5" class="node">
<title>Node5</title>
<g id="a_node5"><a xlink:title=" ">
<polygon fill="white" stroke="#bfbfbf" points="221,-0.5 221,-19.5 271,-19.5 271,-0.5 221,-0.5"/>
<text text-anchor="middle" x="246" y="-7.5" font-family="Helvetica,sans-Serif" font-size="10.00">cstdint</text>
</a>
</g>
</g>
<!-- Node2&#45;&gt;Node5 -->
<g id="edge6" class="edge">
<title>Node2&#45;&gt;Node5</title>
<path fill="none" stroke="midnightblue" d="M240.43,-123.3C241.4,-103.85 243.74,-56.49 245.06,-29.9"/>
<polygon fill="midnightblue" stroke="midnightblue" points="248.57,-29.78 245.57,-19.62 241.58,-29.44 248.57,-29.78"/>
</g>
<!-- Node4&#45;&gt;Node5 -->
<g id="edge4" class="edge">
<title>Node4&#45;&gt;Node5</title>
<path fill="none" stroke="midnightblue" d="M329.1,-61.98C313.33,-52.3 287.36,-36.37 268.65,-24.89"/>
<polygon fill="midnightblue" stroke="midnightblue" points="270.23,-21.75 259.87,-19.51 266.57,-27.72 270.23,-21.75"/>
</g>
<!-- Node6 -->
<g id="node6" class="node">
<title>Node6</title>
<g id="a_node6"><a xlink:title=" ">
<polygon fill="white" stroke="#bfbfbf" points="296.5,-0.5 296.5,-19.5 389.5,-19.5 389.5,-0.5 296.5,-0.5"/>
<text text-anchor="middle" x="343" y="-7.5" font-family="Helvetica,sans-Serif" font-size="10.00">unordered_map</text>
</a>
</g>
</g>
<!-- Node4&#45;&gt;Node6 -->
<g id="edge5" class="edge">
<title>Node4&#45;&gt;Node6</title>
<path fill="none" stroke="midnightblue" d="M343,-61.98C343,-53.58 343,-40.48 343,-29.66"/>
<polygon fill="midnightblue" stroke="midnightblue" points="346.5,-29.51 343,-19.51 339.5,-29.51 346.5,-29.51"/>
</g>
<!-- Node7&#45;&gt;Node3 -->
<g id="edge9" class="edge">
<title>Node7&#45;&gt;Node3</title>
<path fill="none" stroke="midnightblue" d="M76.46,-123.48C88.36,-115.34 106.71,-102.79 122.23,-92.18"/>
<polygon fill="midnightblue" stroke="midnightblue" points="124.22,-95.06 130.5,-86.52 120.27,-89.28 124.22,-95.06"/>
</g>
<!-- Node7&#45;&gt;Node5 -->
<g id="edge10" class="edge">
<title>Node7&#45;&gt;Node5</title>
<path fill="none" stroke="midnightblue" d="M62.45,-123.22C60.24,-107.61 58.13,-74.9 75,-56 92.88,-35.96 166.2,-22.29 210.83,-15.65"/>
<polygon fill="midnightblue" stroke="midnightblue" points="211.56,-19.08 220.96,-14.19 210.56,-12.15 211.56,-19.08"/>
</g>
</g>
</svg>
