<?xml version="1.0" encoding="UTF-8" standalone="no"?>
<!DOCTYPE svg PUBLIC "-//W3C//DTD SVG 1.1//EN"
 "http://www.w3.org/Graphics/SVG/1.1/DTD/svg11.dtd">
<!-- Generated by graphviz version 2.43.0 (0)
 -->
<!-- Title: ads1115/src/ads1115.cpp Pages: 1 -->
<!--zoomable 263 -->
<svg id="main" version="1.1" xmlns="http://www.w3.org/2000/svg" xmlns:xlink="http://www.w3.org/1999/xlink" xml:space="preserve" onload="init(evt)">
<style type="text/css"><![CDATA[
.edge:hover path { stroke: red; }
.edge:hover polygon { stroke: red; fill: red; }
]]></style>
<script type="text/javascript"><![CDATA[
var edges = document.getElementsByTagName('g');
if (edges && edges.length) {
  for (var i=0;i<edges.length;i++) {
    if (edges[i].id.substr(0,4)=='edge') {
      edges[i].setAttribute('class','edge');
    }
  }
}
]]></script>
        <defs>
                <circle id="rim" cx="0" cy="0" r="7"/>
                <circle id="rim2" cx="0" cy="0" r="3.5"/>
                <g id="zoomPlus">
                        <use xlink:href="#rim" fill="#404040">
                                <set attributeName="fill" to="#808080" begin="zoomplus.mouseover" end="zoomplus.mouseout"/>
                        </use>
                        <path d="M-4,0h8M0,-4v8" fill="none" stroke="white" stroke-width="1.5" pointer-events="none"/>
                </g>
                <g id="zoomMin">
                        <use xlink:href="#rim" fill="#404040">
                                <set attributeName="fill" to="#808080" begin="zoomminus.mouseover" end="zoomminus.mouseout"/>
                        </use>
                        <path d="M-4,0h8" fill="none" stroke="white" stroke-width="1.5" pointer-events="none"/>
                </g>
                <g id="dirArrow">
                        <path fill="none" stroke="white" stroke-width="1.5" d="M0,-3.0v7 M-2.5,-0.5L0,-3.0L2.5,-0.5"/>
                </g>
               <g id="resetDef">
                       <use xlink:href="#rim2" fill="#404040">
                               <set attributeName="fill" to="#808080" begin="reset.mouseover" end="reset.mouseout"/>
                       </use>
               </g>
        </defs>

<script type="text/javascript">
var viewWidth = 1092;
var viewHeight = 263;
var sectionId = 'dynsection-0';
</script>
<script xlink:href="svgpan.js"/>
<svg id="graph" class="graph">
<g id="viewport">
<title>ads1115/src/ads1115.cpp</title>
<polygon fill="white" stroke="transparent" points="-4,4 -4,-259 1088.21,-259 1088.21,4 -4,4"/>
<!-- Node1 -->
<g id="node1" class="node">
<title>Node1</title>
<g id="a_node1"><a xlink:title=" ">
<polygon fill="#bfbfbf" stroke="black" points="633.21,-235.5 633.21,-254.5 773.21,-254.5 773.21,-235.5 633.21,-235.5"/>
<text text-anchor="middle" x="703.21" y="-242.5" font-family="Helvetica,sans-Serif" font-size="10.00">ads1115/src/ads1115.cpp</text>
</a>
</g>
</g>
<!-- Node2 -->
<g id="node2" class="node">
<title>Node2</title>
<g id="a_node2"><a xlink:href="ads1115_8hpp.html" target="_top" xlink:title=" ">
<polygon fill="white" stroke="black" points="239.71,-179.5 239.71,-198.5 362.71,-198.5 362.71,-179.5 239.71,-179.5"/>
<text text-anchor="middle" x="301.21" y="-186.5" font-family="Helvetica,sans-Serif" font-size="10.00">ads1115/ads1115.hpp</text>
</a>
</g>
</g>
<!-- Node1&#45;&gt;Node2 -->
<g id="edge1" class="edge">
<title>Node1&#45;&gt;Node2</title>
<path fill="none" stroke="midnightblue" d="M639.52,-235.44C566.95,-225.7 448.64,-209.8 372.9,-199.63"/>
<polygon fill="midnightblue" stroke="midnightblue" points="373.34,-196.16 362.96,-198.29 372.41,-203.1 373.34,-196.16"/>
</g>
<!-- Node3 -->
<g id="node3" class="node">
<title>Node3</title>
<g id="a_node3"><a xlink:href="config_8hpp.html" target="_top" xlink:title=" ">
<polygon fill="white" stroke="black" points="353.71,-123.5 353.71,-142.5 464.71,-142.5 464.71,-123.5 353.71,-123.5"/>
<text text-anchor="middle" x="409.21" y="-130.5" font-family="Helvetica,sans-Serif" font-size="10.00">ads1115/config.hpp</text>
</a>
</g>
</g>
<!-- Node1&#45;&gt;Node3 -->
<g id="edge15" class="edge">
<title>Node1&#45;&gt;Node3</title>
<path fill="none" stroke="midnightblue" d="M679.6,-235.46C654.82,-226.47 614.73,-211.87 580.21,-199 531.46,-180.82 475.08,-159.29 440.79,-146.14"/>
<polygon fill="midnightblue" stroke="midnightblue" points="441.91,-142.82 431.32,-142.5 439.4,-149.35 441.91,-142.82"/>
</g>
<!-- Node5 -->
<g id="node5" class="node">
<title>Node5</title>
<g id="a_node5"><a xlink:href="parameters_8hpp.html" target="_top" xlink:title=" ">
<polygon fill="white" stroke="black" points="340.21,-62 340.21,-81 478.21,-81 478.21,-62 340.21,-62"/>
<text text-anchor="middle" x="409.21" y="-69" font-family="Helvetica,sans-Serif" font-size="10.00">ads1115/parameters.hpp</text>
</a>
</g>
</g>
<!-- Node1&#45;&gt;Node5 -->
<g id="edge16" class="edge">
<title>Node1&#45;&gt;Node5</title>
<path fill="none" stroke="midnightblue" d="M686.22,-235.5C672.32,-227.74 653.07,-215.05 641.21,-199 620,-170.29 641.56,-147.09 615.21,-123 595.57,-105.03 532.38,-91.25 481.12,-82.66"/>
<polygon fill="midnightblue" stroke="midnightblue" points="481.48,-79.17 471.04,-81.01 480.34,-86.08 481.48,-79.17"/>
</g>
<!-- Node6 -->
<g id="node6" class="node">
<title>Node6</title>
<g id="a_node6"><a xlink:title=" ">
<polygon fill="white" stroke="#bfbfbf" points="154.21,-0.5 154.21,-19.5 204.21,-19.5 204.21,-0.5 154.21,-0.5"/>
<text text-anchor="middle" x="179.21" y="-7.5" font-family="Helvetica,sans-Serif" font-size="10.00">cstdint</text>
</a>
</g>
</g>
<!-- Node1&#45;&gt;Node6 -->
<g id="edge21" class="edge">
<title>Node1&#45;&gt;Node6</title>
<path fill="none" stroke="midnightblue" d="M633.14,-239.21C464.71,-226.94 48.22,-191.9 10.21,-143 -33.61,-86.62 83.12,-40.62 144.41,-21.1"/>
<polygon fill="midnightblue" stroke="midnightblue" points="145.58,-24.4 154.09,-18.09 143.51,-17.71 145.58,-24.4"/>
</g>
<!-- Node9 -->
<g id="node9" class="node">
<title>Node9</title>
<g id="a_node9"><a xlink:title=" ">
<polygon fill="white" stroke="#bfbfbf" points="482.71,-123.5 482.71,-142.5 605.71,-142.5 605.71,-123.5 482.71,-123.5"/>
<text text-anchor="middle" x="544.21" y="-130.5" font-family="Helvetica,sans-Serif" font-size="10.00">i2c&#45;device/device.hpp</text>
</a>
</g>
</g>
<!-- Node1&#45;&gt;Node9 -->
<g id="edge17" class="edge">
<title>Node1&#45;&gt;Node9</title>
<path fill="none" stroke="midnightblue" d="M679.03,-235.49C658.79,-227.73 629.69,-215.04 607.21,-199 587.72,-185.09 569.11,-164.71 557.24,-150.49"/>
<polygon fill="midnightblue" stroke="midnightblue" points="559.8,-148.09 550.77,-142.55 554.37,-152.51 559.8,-148.09"/>
</g>
<!-- Node12 -->
<g id="node12" class="node">
<title>Node12</title>
<g id="a_node12"><a xlink:title=" ">
<polygon fill="white" stroke="#bfbfbf" points="649.71,-179.5 649.71,-198.5 756.71,-198.5 756.71,-179.5 649.71,-179.5"/>
<text text-anchor="middle" x="703.21" y="-186.5" font-family="Helvetica,sans-Serif" font-size="10.00">i2c&#45;device/util.hpp</text>
</a>
</g>
</g>
<!-- Node1&#45;&gt;Node12 -->
<g id="edge18" class="edge">
<title>Node1&#45;&gt;Node12</title>
<path fill="none" stroke="midnightblue" d="M703.21,-235.08C703.21,-228.01 703.21,-217.86 703.21,-208.99"/>
<polygon fill="midnightblue" stroke="midnightblue" points="706.71,-208.75 703.21,-198.75 699.71,-208.75 706.71,-208.75"/>
</g>
<!-- Node13 -->
<g id="node13" class="node">
<title>Node13</title>
<g id="a_node13"><a xlink:title=" ">
<polygon fill="white" stroke="#bfbfbf" points="774.71,-179.5 774.71,-198.5 803.71,-198.5 803.71,-179.5 774.71,-179.5"/>
<text text-anchor="middle" x="789.21" y="-186.5" font-family="Helvetica,sans-Serif" font-size="10.00">bit</text>
</a>
</g>
</g>
<!-- Node1&#45;&gt;Node13 -->
<g id="edge19" class="edge">
<title>Node1&#45;&gt;Node13</title>
<path fill="none" stroke="midnightblue" d="M717.03,-235.32C730.45,-226.9 751.04,-213.97 766.8,-204.07"/>
<polygon fill="midnightblue" stroke="midnightblue" points="768.82,-206.94 775.43,-198.65 765.1,-201.01 768.82,-206.94"/>
</g>
<!-- Node14 -->
<g id="node14" class="node">
<title>Node14</title>
<g id="a_node14"><a xlink:title=" ">
<polygon fill="white" stroke="#bfbfbf" points="822.21,-179.5 822.21,-198.5 872.21,-198.5 872.21,-179.5 822.21,-179.5"/>
<text text-anchor="middle" x="847.21" y="-186.5" font-family="Helvetica,sans-Serif" font-size="10.00">chrono</text>
</a>
</g>
</g>
<!-- Node1&#45;&gt;Node14 -->
<g id="edge20" class="edge">
<title>Node1&#45;&gt;Node14</title>
<path fill="none" stroke="midnightblue" d="M726.03,-235.44C750.05,-226.44 788.04,-212.19 815.08,-202.05"/>
<polygon fill="midnightblue" stroke="midnightblue" points="816.37,-205.3 824.5,-198.52 813.91,-198.75 816.37,-205.3"/>
</g>
<!-- Node15 -->
<g id="node15" class="node">
<title>Node15</title>
<g id="a_node15"><a xlink:title=" ">
<polygon fill="white" stroke="#bfbfbf" points="890.21,-179.5 890.21,-198.5 934.21,-198.5 934.21,-179.5 890.21,-179.5"/>
<text text-anchor="middle" x="912.21" y="-186.5" font-family="Helvetica,sans-Serif" font-size="10.00">limits</text>
</a>
</g>
</g>
<!-- Node1&#45;&gt;Node15 -->
<g id="edge22" class="edge">
<title>Node1&#45;&gt;Node15</title>
<path fill="none" stroke="midnightblue" d="M738.43,-235.48C772.37,-227.19 825.4,-214 880.04,-199.26"/>
<polygon fill="midnightblue" stroke="midnightblue" points="881.15,-202.58 889.89,-196.58 879.32,-195.82 881.15,-202.58"/>
</g>
<!-- Node16 -->
<g id="node16" class="node">
<title>Node16</title>
<g id="a_node16"><a xlink:title=" ">
<polygon fill="white" stroke="#bfbfbf" points="952.71,-179.5 952.71,-198.5 1017.71,-198.5 1017.71,-179.5 952.71,-179.5"/>
<text text-anchor="middle" x="985.21" y="-186.5" font-family="Helvetica,sans-Serif" font-size="10.00">stdexcept</text>
</a>
</g>
</g>
<!-- Node1&#45;&gt;Node16 -->
<g id="edge23" class="edge">
<title>Node1&#45;&gt;Node16</title>
<path fill="none" stroke="midnightblue" d="M750.64,-235.48C797.02,-227.06 869.91,-213.62 942.85,-199.03"/>
<polygon fill="midnightblue" stroke="midnightblue" points="943.56,-202.46 952.67,-197.06 942.18,-195.6 943.56,-202.46"/>
</g>
<!-- Node17 -->
<g id="node17" class="node">
<title>Node17</title>
<g id="a_node17"><a xlink:title=" ">
<polygon fill="white" stroke="#bfbfbf" points="1036.21,-179.5 1036.21,-198.5 1084.21,-198.5 1084.21,-179.5 1036.21,-179.5"/>
<text text-anchor="middle" x="1060.21" y="-186.5" font-family="Helvetica,sans-Serif" font-size="10.00">thread</text>
</a>
</g>
</g>
<!-- Node1&#45;&gt;Node17 -->
<g id="edge24" class="edge">
<title>Node1&#45;&gt;Node17</title>
<path fill="none" stroke="midnightblue" d="M773.49,-236.87C837.17,-229.81 933.69,-217.63 1026.33,-198.95"/>
<polygon fill="midnightblue" stroke="midnightblue" points="1027.05,-202.38 1036.15,-196.95 1025.65,-195.52 1027.05,-202.38"/>
</g>
<!-- Node2&#45;&gt;Node3 -->
<g id="edge2" class="edge">
<title>Node2&#45;&gt;Node3</title>
<path fill="none" stroke="midnightblue" d="M318.57,-179.32C335.89,-170.66 362.73,-157.24 382.72,-147.25"/>
<polygon fill="midnightblue" stroke="midnightblue" points="384.53,-150.26 391.9,-142.65 381.4,-144 384.53,-150.26"/>
</g>
<!-- Node4 -->
<g id="node4" class="node">
<title>Node4</title>
<g id="a_node4"><a xlink:href="ads1115__export_8h.html" target="_top" xlink:title=" ">
<polygon fill="white" stroke="black" points="111.71,-56.5 111.71,-86.5 244.71,-86.5 244.71,-56.5 111.71,-56.5"/>
<text text-anchor="start" x="119.71" y="-74.5" font-family="Helvetica,sans-Serif" font-size="10.00">ads1115/detail/ads1115</text>
<text text-anchor="middle" x="178.21" y="-63.5" font-family="Helvetica,sans-Serif" font-size="10.00">_export.h</text>
</a>
</g>
</g>
<!-- Node2&#45;&gt;Node4 -->
<g id="edge8" class="edge">
<title>Node2&#45;&gt;Node4</title>
<path fill="none" stroke="midnightblue" d="M257.21,-179.48C235.26,-173.03 210.08,-161.91 194.21,-143 183.44,-130.15 179.55,-111.52 178.3,-96.63"/>
<polygon fill="midnightblue" stroke="midnightblue" points="181.79,-96.41 177.79,-86.6 174.8,-96.76 181.79,-96.41"/>
</g>
<!-- Node8 -->
<g id="node8" class="node">
<title>Node8</title>
<g id="a_node8"><a xlink:href="threshold_8hpp.html" target="_top" xlink:title=" ">
<polygon fill="white" stroke="black" points="19.21,-123.5 19.21,-142.5 147.21,-142.5 147.21,-123.5 19.21,-123.5"/>
<text text-anchor="middle" x="83.21" y="-130.5" font-family="Helvetica,sans-Serif" font-size="10.00">ads1115/threshold.hpp</text>
</a>
</g>
</g>
<!-- Node2&#45;&gt;Node8 -->
<g id="edge9" class="edge">
<title>Node2&#45;&gt;Node8</title>
<path fill="none" stroke="midnightblue" d="M266.67,-179.44C228.96,-170.1 168.47,-155.12 127.35,-144.93"/>
<polygon fill="midnightblue" stroke="midnightblue" points="128.14,-141.52 117.59,-142.52 126.46,-148.32 128.14,-141.52"/>
</g>
<!-- Node2&#45;&gt;Node9 -->
<g id="edge12" class="edge">
<title>Node2&#45;&gt;Node9</title>
<path fill="none" stroke="midnightblue" d="M339.72,-179.44C382.02,-170.04 450.03,-154.93 495.89,-144.74"/>
<polygon fill="midnightblue" stroke="midnightblue" points="496.89,-148.1 505.89,-142.52 495.37,-141.27 496.89,-148.1"/>
</g>
<!-- Node10 -->
<g id="node10" class="node">
<title>Node10</title>
<g id="a_node10"><a xlink:title=" ">
<polygon fill="white" stroke="#bfbfbf" points="203.21,-123.5 203.21,-142.5 249.21,-142.5 249.21,-123.5 203.21,-123.5"/>
<text text-anchor="middle" x="226.21" y="-130.5" font-family="Helvetica,sans-Serif" font-size="10.00">cstdio</text>
</a>
</g>
</g>
<!-- Node2&#45;&gt;Node10 -->
<g id="edge13" class="edge">
<title>Node2&#45;&gt;Node10</title>
<path fill="none" stroke="midnightblue" d="M289.16,-179.32C277.75,-171.11 260.38,-158.6 246.78,-148.81"/>
<polygon fill="midnightblue" stroke="midnightblue" points="248.64,-145.84 238.48,-142.83 244.55,-151.52 248.64,-145.84"/>
</g>
<!-- Node11 -->
<g id="node11" class="node">
<title>Node11</title>
<g id="a_node11"><a xlink:title=" ">
<polygon fill="white" stroke="#bfbfbf" points="267.21,-123.5 267.21,-142.5 335.21,-142.5 335.21,-123.5 267.21,-123.5"/>
<text text-anchor="middle" x="301.21" y="-130.5" font-family="Helvetica,sans-Serif" font-size="10.00">filesystem</text>
</a>
</g>
</g>
<!-- Node2&#45;&gt;Node11 -->
<g id="edge14" class="edge">
<title>Node2&#45;&gt;Node11</title>
<path fill="none" stroke="midnightblue" d="M301.21,-179.08C301.21,-172.01 301.21,-161.86 301.21,-152.99"/>
<polygon fill="midnightblue" stroke="midnightblue" points="304.71,-152.75 301.21,-142.75 297.71,-152.75 304.71,-152.75"/>
</g>
<!-- Node3&#45;&gt;Node4 -->
<g id="edge3" class="edge">
<title>Node3&#45;&gt;Node4</title>
<path fill="none" stroke="midnightblue" d="M376.12,-123.48C341.4,-114.53 285.94,-100.25 242.56,-89.07"/>
<polygon fill="midnightblue" stroke="midnightblue" points="243.21,-85.63 232.66,-86.52 241.47,-92.41 243.21,-85.63"/>
</g>
<!-- Node3&#45;&gt;Node5 -->
<g id="edge4" class="edge">
<title>Node3&#45;&gt;Node5</title>
<path fill="none" stroke="midnightblue" d="M409.21,-123.48C409.21,-115.08 409.21,-101.98 409.21,-91.16"/>
<polygon fill="midnightblue" stroke="midnightblue" points="412.71,-91.01 409.21,-81.01 405.71,-91.01 412.71,-91.01"/>
</g>
<!-- Node3&#45;&gt;Node6 -->
<g id="edge7" class="edge">
<title>Node3&#45;&gt;Node6</title>
<path fill="none" stroke="midnightblue" d="M393.04,-123.49C353.63,-102.76 252.37,-49.49 204.72,-24.42"/>
<polygon fill="midnightblue" stroke="midnightblue" points="206.16,-21.22 195.68,-19.66 202.9,-27.41 206.16,-21.22"/>
</g>
<!-- Node5&#45;&gt;Node6 -->
<g id="edge5" class="edge">
<title>Node5&#45;&gt;Node6</title>
<path fill="none" stroke="midnightblue" d="M376.26,-61.98C333.25,-50.85 258.3,-31.46 214.28,-20.07"/>
<polygon fill="midnightblue" stroke="midnightblue" points="214.88,-16.61 204.32,-17.49 213.12,-23.39 214.88,-16.61"/>
</g>
<!-- Node7 -->
<g id="node7" class="node">
<title>Node7</title>
<g id="a_node7"><a xlink:title=" ">
<polygon fill="white" stroke="#bfbfbf" points="362.71,-0.5 362.71,-19.5 455.71,-19.5 455.71,-0.5 362.71,-0.5"/>
<text text-anchor="middle" x="409.21" y="-7.5" font-family="Helvetica,sans-Serif" font-size="10.00">unordered_map</text>
</a>
</g>
</g>
<!-- Node5&#45;&gt;Node7 -->
<g id="edge6" class="edge">
<title>Node5&#45;&gt;Node7</title>
<path fill="none" stroke="midnightblue" d="M409.21,-61.98C409.21,-53.58 409.21,-40.48 409.21,-29.66"/>
<polygon fill="midnightblue" stroke="midnightblue" points="412.71,-29.51 409.21,-19.51 405.71,-29.51 412.71,-29.51"/>
</g>
<!-- Node8&#45;&gt;Node4 -->
<g id="edge10" class="edge">
<title>Node8&#45;&gt;Node4</title>
<path fill="none" stroke="midnightblue" d="M96.82,-123.48C109.93,-115.27 130.22,-102.56 147.26,-91.88"/>
<polygon fill="midnightblue" stroke="midnightblue" points="149.21,-94.8 155.82,-86.52 145.49,-88.86 149.21,-94.8"/>
</g>
<!-- Node8&#45;&gt;Node6 -->
<g id="edge11" class="edge">
<title>Node8&#45;&gt;Node6</title>
<path fill="none" stroke="midnightblue" d="M83.28,-123.09C83.82,-107.85 86.87,-76.46 102.21,-56 113.06,-41.54 130.03,-30.9 145.28,-23.62"/>
<polygon fill="midnightblue" stroke="midnightblue" points="146.78,-26.78 154.49,-19.51 143.93,-20.39 146.78,-26.78"/>
</g>
</g>
</svg>
        <g id="navigator" transform="translate(0 0)" fill="#404254">
                <rect fill="#f2f5e9" fill-opacity="0.5" stroke="#606060" stroke-width=".5" x="0" y="0" width="60" height="60"/>
                <use id="zoomplus" xlink:href="#zoomPlus" x="17" y="9" onmousedown="handleZoom(evt,'in')"/>
                <use id="zoomminus" xlink:href="#zoomMin" x="42" y="9" onmousedown="handleZoom(evt,'out')"/>
                <use id="reset" xlink:href="#resetDef" x="30" y="36" onmousedown="handleReset()"/>
                <g id="arrowUp" xlink:href="#dirArrow" transform="translate(30 24)" onmousedown="handlePan(0,-1)">
                  <use xlink:href="#rim" fill="#404040">
                        <set attributeName="fill" to="#808080" begin="arrowUp.mouseover" end="arrowUp.mouseout"/>
                  </use>
                  <path fill="none" stroke="white" stroke-width="1.5" d="M0,-3.0v7 M-2.5,-0.5L0,-3.0L2.5,-0.5"/>
                </g>
                <g id="arrowRight" xlink:href="#dirArrow" transform="rotate(90) translate(36 -43)" onmousedown="handlePan(1,0)">
                  <use xlink:href="#rim" fill="#404040">
                        <set attributeName="fill" to="#808080" begin="arrowRight.mouseover" end="arrowRight.mouseout"/>
                  </use>
                  <path fill="none" stroke="white" stroke-width="1.5" d="M0,-3.0v7 M-2.5,-0.5L0,-3.0L2.5,-0.5"/>
                </g>
                <g id="arrowDown" xlink:href="#dirArrow" transform="rotate(180) translate(-30 -48)" onmousedown="handlePan(0,1)">
                  <use xlink:href="#rim" fill="#404040">
                        <set attributeName="fill" to="#808080" begin="arrowDown.mouseover" end="arrowDown.mouseout"/>
                  </use>
                  <path fill="none" stroke="white" stroke-width="1.5" d="M0,-3.0v7 M-2.5,-0.5L0,-3.0L2.5,-0.5"/>
                </g>
                <g id="arrowLeft" xlink:href="#dirArrow" transform="rotate(270) translate(-36 17)" onmousedown="handlePan(-1,0)">
                  <use xlink:href="#rim" fill="#404040">
                        <set attributeName="fill" to="#808080" begin="arrowLeft.mouseover" end="arrowLeft.mouseout"/>
                  </use>
                  <path fill="none" stroke="white" stroke-width="1.5" d="M0,-3.0v7 M-2.5,-0.5L0,-3.0L2.5,-0.5"/>
                </g>
        </g>
        <svg viewBox="0 0 15 15" width="100%" height="30px" preserveAspectRatio="xMaxYMin meet">
         <g id="arrow_out" transform="scale(0.3 0.3)">
          <a xlink:href="ads1115_2src_2ads1115_8cpp__incl_org.svg" target="_base">
           <rect id="button" ry="5" rx="5" y="6" x="6" height="38" width="38"
                fill="#f2f5e9" fill-opacity="0.5" stroke="#606060" stroke-width="1.0"/>
           <path id="arrow"
             d="M 11.500037,31.436501 C 11.940474,20.09759 22.043105,11.32322 32.158766,21.979434 L 37.068811,17.246167 C 37.068811,17.246167 37.088388,32 37.088388,32 L 22.160133,31.978069 C 22.160133,31.978069 26.997745,27.140456 26.997745,27.140456 C 18.528582,18.264221 13.291696,25.230495 11.500037,31.436501 z"
             style="fill:#404040;"/>
          </a>
         </g>
        </svg>
</svg>
