<?xml version="1.0" encoding="UTF-8" standalone="no"?>
<!DOCTYPE svg PUBLIC "-//W3C//DTD SVG 1.1//EN"
 "http://www.w3.org/Graphics/SVG/1.1/DTD/svg11.dtd">
<!-- Generated by graphviz version 2.43.0 (0)
 -->
<!-- Title: ads1115/src/threshold.cpp Pages: 1 -->
<svg width="371pt" height="140pt"
 viewBox="0.00 0.00 370.50 140.00" xmlns="http://www.w3.org/2000/svg" xmlns:xlink="http://www.w3.org/1999/xlink">
<g id="graph0" class="graph" transform="scale(1 1) rotate(0) translate(4 136)">
<title>ads1115/src/threshold.cpp</title>
<polygon fill="white" stroke="transparent" points="-4,4 -4,-136 366.5,-136 366.5,4 -4,4"/>
<!-- Node1 -->
<g id="node1" class="node">
<title>Node1</title>
<g id="a_node1"><a xlink:title=" ">
<polygon fill="#bfbfbf" stroke="black" points="122,-112.5 122,-131.5 266,-131.5 266,-112.5 122,-112.5"/>
<text text-anchor="middle" x="194" y="-119.5" font-family="Helvetica,sans-Serif" font-size="10.00">ads1115/src/threshold.cpp</text>
</a>
</g>
</g>
<!-- Node2 -->
<g id="node2" class="node">
<title>Node2</title>
<g id="a_node2"><a xlink:href="threshold_8hpp.html" target="_top" xlink:title=" ">
<polygon fill="white" stroke="black" points="0,-56.5 0,-75.5 128,-75.5 128,-56.5 0,-56.5"/>
<text text-anchor="middle" x="64" y="-63.5" font-family="Helvetica,sans-Serif" font-size="10.00">ads1115/threshold.hpp</text>
</a>
</g>
</g>
<!-- Node1&#45;&gt;Node2 -->
<g id="edge1" class="edge">
<title>Node1&#45;&gt;Node2</title>
<path fill="none" stroke="midnightblue" d="M173.4,-112.44C152.01,-103.56 118.32,-89.56 93.98,-79.45"/>
<polygon fill="midnightblue" stroke="midnightblue" points="95.08,-76.12 84.5,-75.52 92.39,-82.58 95.08,-76.12"/>
</g>
<!-- Node3 -->
<g id="node3" class="node">
<title>Node3</title>
<g id="a_node3"><a xlink:title=" ">
<polygon fill="white" stroke="#bfbfbf" points="65,-0.5 65,-19.5 115,-19.5 115,-0.5 65,-0.5"/>
<text text-anchor="middle" x="90" y="-7.5" font-family="Helvetica,sans-Serif" font-size="10.00">cstdint</text>
</a>
</g>
</g>
<!-- Node1&#45;&gt;Node3 -->
<g id="edge7" class="edge">
<title>Node1&#45;&gt;Node3</title>
<path fill="none" stroke="midnightblue" d="M186.85,-112.38C176.27,-99.72 155.68,-75.52 137,-56 127.33,-45.9 116.03,-35.05 106.93,-26.53"/>
<polygon fill="midnightblue" stroke="midnightblue" points="109.31,-23.97 99.6,-19.73 104.55,-29.1 109.31,-23.97"/>
</g>
<!-- Node4 -->
<g id="node4" class="node">
<title>Node4</title>
<g id="a_node4"><a xlink:href="bit_8hpp.html" target="_top" xlink:title=" ">
<polygon fill="white" stroke="black" points="184.5,-56.5 184.5,-75.5 279.5,-75.5 279.5,-56.5 184.5,-56.5"/>
<text text-anchor="middle" x="232" y="-63.5" font-family="Helvetica,sans-Serif" font-size="10.00">ads1115/bit.hpp</text>
</a>
</g>
</g>
<!-- Node1&#45;&gt;Node4 -->
<g id="edge3" class="edge">
<title>Node1&#45;&gt;Node4</title>
<path fill="none" stroke="midnightblue" d="M200.27,-112.08C205.64,-104.46 213.52,-93.26 220.08,-83.94"/>
<polygon fill="midnightblue" stroke="midnightblue" points="222.95,-85.94 225.84,-75.75 217.22,-81.91 222.95,-85.94"/>
</g>
<!-- Node8 -->
<g id="node8" class="node">
<title>Node8</title>
<g id="a_node8"><a xlink:title=" ">
<polygon fill="white" stroke="#bfbfbf" points="297.5,-56.5 297.5,-75.5 362.5,-75.5 362.5,-56.5 297.5,-56.5"/>
<text text-anchor="middle" x="330" y="-63.5" font-family="Helvetica,sans-Serif" font-size="10.00">stdexcept</text>
</a>
</g>
</g>
<!-- Node1&#45;&gt;Node8 -->
<g id="edge8" class="edge">
<title>Node1&#45;&gt;Node8</title>
<path fill="none" stroke="midnightblue" d="M215.55,-112.44C238.03,-103.52 273.49,-89.44 298.98,-79.32"/>
<polygon fill="midnightblue" stroke="midnightblue" points="300.55,-82.46 308.55,-75.52 297.97,-75.95 300.55,-82.46"/>
</g>
<!-- Node2&#45;&gt;Node3 -->
<g id="edge2" class="edge">
<title>Node2&#45;&gt;Node3</title>
<path fill="none" stroke="midnightblue" d="M68.29,-56.08C71.85,-48.69 77.02,-37.95 81.42,-28.81"/>
<polygon fill="midnightblue" stroke="midnightblue" points="84.6,-30.28 85.79,-19.75 78.29,-27.24 84.6,-30.28"/>
</g>
<!-- Node5 -->
<g id="node5" class="node">
<title>Node5</title>
<g id="a_node5"><a xlink:title=" ">
<polygon fill="white" stroke="#bfbfbf" points="159.5,-0.5 159.5,-19.5 188.5,-19.5 188.5,-0.5 159.5,-0.5"/>
<text text-anchor="middle" x="174" y="-7.5" font-family="Helvetica,sans-Serif" font-size="10.00">bit</text>
</a>
</g>
</g>
<!-- Node4&#45;&gt;Node5 -->
<g id="edge4" class="edge">
<title>Node4&#45;&gt;Node5</title>
<path fill="none" stroke="midnightblue" d="M222.68,-56.32C214.11,-48.34 201.19,-36.31 190.81,-26.65"/>
<polygon fill="midnightblue" stroke="midnightblue" points="193.19,-24.09 183.49,-19.83 188.42,-29.21 193.19,-24.09"/>
</g>
<!-- Node6 -->
<g id="node6" class="node">
<title>Node6</title>
<g id="a_node6"><a xlink:title=" ">
<polygon fill="white" stroke="#bfbfbf" points="207,-0.5 207,-19.5 257,-19.5 257,-0.5 207,-0.5"/>
<text text-anchor="middle" x="232" y="-7.5" font-family="Helvetica,sans-Serif" font-size="10.00">cstring</text>
</a>
</g>
</g>
<!-- Node4&#45;&gt;Node6 -->
<g id="edge5" class="edge">
<title>Node4&#45;&gt;Node6</title>
<path fill="none" stroke="midnightblue" d="M232,-56.08C232,-49.01 232,-38.86 232,-29.99"/>
<polygon fill="midnightblue" stroke="midnightblue" points="235.5,-29.75 232,-19.75 228.5,-29.75 235.5,-29.75"/>
</g>
<!-- Node7 -->
<g id="node7" class="node">
<title>Node7</title>
<g id="a_node7"><a xlink:title=" ">
<polygon fill="white" stroke="#bfbfbf" points="275.5,-0.5 275.5,-19.5 344.5,-19.5 344.5,-0.5 275.5,-0.5"/>
<text text-anchor="middle" x="310" y="-7.5" font-family="Helvetica,sans-Serif" font-size="10.00">type_traits</text>
</a>
</g>
</g>
<!-- Node4&#45;&gt;Node7 -->
<g id="edge6" class="edge">
<title>Node4&#45;&gt;Node7</title>
<path fill="none" stroke="midnightblue" d="M244.53,-56.32C256.59,-47.98 275.03,-35.21 289.27,-25.35"/>
<polygon fill="midnightblue" stroke="midnightblue" points="291.27,-28.22 297.5,-19.65 287.28,-22.47 291.27,-28.22"/>
</g>
</g>
</svg>
