<?xml version="1.0" encoding="UTF-8" standalone="no"?>
<!DOCTYPE svg PUBLIC "-//W3C//DTD SVG 1.1//EN"
 "http://www.w3.org/Graphics/SVG/1.1/DTD/svg11.dtd">
<!-- Generated by graphviz version 2.43.0 (0)
 -->
<!-- Title: ads1115/src/threshold.cpp Pages: 1 -->
<svg width="325pt" height="151pt"
 viewBox="0.00 0.00 325.00 151.00" xmlns="http://www.w3.org/2000/svg" xmlns:xlink="http://www.w3.org/1999/xlink">
<g id="graph0" class="graph" transform="scale(1 1) rotate(0) translate(4 147)">
<title>ads1115/src/threshold.cpp</title>
<polygon fill="white" stroke="transparent" points="-4,4 -4,-147 321,-147 321,4 -4,4"/>
<!-- Node1 -->
<g id="node1" class="node">
<title>Node1</title>
<g id="a_node1"><a xlink:title=" ">
<polygon fill="#bfbfbf" stroke="black" points="125.5,-123.5 125.5,-142.5 269.5,-142.5 269.5,-123.5 125.5,-123.5"/>
<text text-anchor="middle" x="197.5" y="-130.5" font-family="Helvetica,sans-Serif" font-size="10.00">ads1115/src/threshold.cpp</text>
</a>
</g>
</g>
<!-- Node2 -->
<g id="node2" class="node">
<title>Node2</title>
<g id="a_node2"><a xlink:href="threshold_8hpp.html" target="_top" xlink:title=" ">
<polygon fill="white" stroke="black" points="20.5,-67.5 20.5,-86.5 148.5,-86.5 148.5,-67.5 20.5,-67.5"/>
<text text-anchor="middle" x="84.5" y="-74.5" font-family="Helvetica,sans-Serif" font-size="10.00">ads1115/threshold.hpp</text>
</a>
</g>
</g>
<!-- Node1&#45;&gt;Node2 -->
<g id="edge1" class="edge">
<title>Node1&#45;&gt;Node2</title>
<path fill="none" stroke="midnightblue" d="M179.59,-123.44C161.25,-114.68 132.49,-100.94 111.41,-90.86"/>
<polygon fill="midnightblue" stroke="midnightblue" points="112.85,-87.67 102.32,-86.52 109.83,-93.99 112.85,-87.67"/>
</g>
<!-- Node4 -->
<g id="node4" class="node">
<title>Node4</title>
<g id="a_node4"><a xlink:title=" ">
<polygon fill="white" stroke="#bfbfbf" points="151.5,-6 151.5,-25 201.5,-25 201.5,-6 151.5,-6"/>
<text text-anchor="middle" x="176.5" y="-13" font-family="Helvetica,sans-Serif" font-size="10.00">cstdint</text>
</a>
</g>
</g>
<!-- Node1&#45;&gt;Node4 -->
<g id="edge5" class="edge">
<title>Node1&#45;&gt;Node4</title>
<path fill="none" stroke="midnightblue" d="M195.92,-123.32C192.53,-104.67 184.49,-60.44 179.89,-35.13"/>
<polygon fill="midnightblue" stroke="midnightblue" points="183.33,-34.49 178.1,-25.28 176.44,-35.75 183.33,-34.49"/>
</g>
<!-- Node5 -->
<g id="node5" class="node">
<title>Node5</title>
<g id="a_node5"><a xlink:title=" ">
<polygon fill="white" stroke="#bfbfbf" points="205,-67.5 205,-86.5 234,-86.5 234,-67.5 205,-67.5"/>
<text text-anchor="middle" x="219.5" y="-74.5" font-family="Helvetica,sans-Serif" font-size="10.00">bit</text>
</a>
</g>
</g>
<!-- Node1&#45;&gt;Node5 -->
<g id="edge4" class="edge">
<title>Node1&#45;&gt;Node5</title>
<path fill="none" stroke="midnightblue" d="M201.13,-123.08C204.11,-115.77 208.43,-105.18 212.12,-96.1"/>
<polygon fill="midnightblue" stroke="midnightblue" points="215.4,-97.33 215.93,-86.75 208.92,-94.69 215.4,-97.33"/>
</g>
<!-- Node6 -->
<g id="node6" class="node">
<title>Node6</title>
<g id="a_node6"><a xlink:title=" ">
<polygon fill="white" stroke="#bfbfbf" points="252,-67.5 252,-86.5 317,-86.5 317,-67.5 252,-67.5"/>
<text text-anchor="middle" x="284.5" y="-74.5" font-family="Helvetica,sans-Serif" font-size="10.00">stdexcept</text>
</a>
</g>
</g>
<!-- Node1&#45;&gt;Node6 -->
<g id="edge6" class="edge">
<title>Node1&#45;&gt;Node6</title>
<path fill="none" stroke="midnightblue" d="M211.48,-123.32C225.05,-114.9 245.88,-101.97 261.82,-92.07"/>
<polygon fill="midnightblue" stroke="midnightblue" points="263.91,-94.9 270.56,-86.65 260.21,-88.95 263.91,-94.9"/>
</g>
<!-- Node3 -->
<g id="node3" class="node">
<title>Node3</title>
<g id="a_node3"><a xlink:href="ads1115__export_8h.html" target="_top" xlink:title=" ">
<polygon fill="white" stroke="black" points="0,-0.5 0,-30.5 133,-30.5 133,-0.5 0,-0.5"/>
<text text-anchor="start" x="8" y="-18.5" font-family="Helvetica,sans-Serif" font-size="10.00">ads1115/detail/ads1115</text>
<text text-anchor="middle" x="66.5" y="-7.5" font-family="Helvetica,sans-Serif" font-size="10.00">_export.h</text>
</a>
</g>
</g>
<!-- Node2&#45;&gt;Node3 -->
<g id="edge2" class="edge">
<title>Node2&#45;&gt;Node3</title>
<path fill="none" stroke="midnightblue" d="M81.92,-67.48C79.78,-60.4 76.63,-49.97 73.73,-40.39"/>
<polygon fill="midnightblue" stroke="midnightblue" points="76.99,-39.08 70.74,-30.52 70.29,-41.11 76.99,-39.08"/>
</g>
<!-- Node2&#45;&gt;Node4 -->
<g id="edge3" class="edge">
<title>Node2&#45;&gt;Node4</title>
<path fill="none" stroke="midnightblue" d="M97.68,-67.48C112.57,-57.84 137.04,-42.02 154.77,-30.55"/>
<polygon fill="midnightblue" stroke="midnightblue" points="156.85,-33.38 163.34,-25.01 153.05,-27.5 156.85,-33.38"/>
</g>
</g>
</svg>
