<?xml version="1.0" encoding="UTF-8" standalone="no"?>
<!DOCTYPE svg PUBLIC "-//W3C//DTD SVG 1.1//EN"
 "http://www.w3.org/Graphics/SVG/1.1/DTD/svg11.dtd">
<!-- Generated by graphviz version 2.43.0 (0)
 -->
<!-- Title: ads1115/include/ads1115/ads1115.hpp Pages: 1 -->
<svg width="422pt" height="207pt"
 viewBox="0.00 0.00 422.00 207.00" xmlns="http://www.w3.org/2000/svg" xmlns:xlink="http://www.w3.org/1999/xlink">
<g id="graph0" class="graph" transform="scale(1 1) rotate(0) translate(4 203)">
<title>ads1115/include/ads1115/ads1115.hpp</title>
<polygon fill="white" stroke="transparent" points="-4,4 -4,-203 418,-203 418,4 -4,4"/>
<!-- Node1 -->
<g id="node1" class="node">
<title>Node1</title>
<g id="a_node1"><a xlink:title=" ">
<polygon fill="#bfbfbf" stroke="black" points="209,-168.5 209,-198.5 349,-198.5 349,-168.5 209,-168.5"/>
<text text-anchor="start" x="217" y="-186.5" font-family="Helvetica,sans-Serif" font-size="10.00">ads1115/include/ads1115</text>
<text text-anchor="middle" x="279" y="-175.5" font-family="Helvetica,sans-Serif" font-size="10.00">/ads1115.hpp</text>
</a>
</g>
</g>
<!-- Node2 -->
<g id="node2" class="node">
<title>Node2</title>
<g id="a_node2"><a xlink:href="config_8hpp.html" target="_top" xlink:title=" ">
<polygon fill="white" stroke="black" points="110.5,-112.5 110.5,-131.5 221.5,-131.5 221.5,-112.5 110.5,-112.5"/>
<text text-anchor="middle" x="166" y="-119.5" font-family="Helvetica,sans-Serif" font-size="10.00">ads1115/config.hpp</text>
</a>
</g>
</g>
<!-- Node1&#45;&gt;Node2 -->
<g id="edge1" class="edge">
<title>Node1&#45;&gt;Node2</title>
<path fill="none" stroke="midnightblue" d="M252.22,-168.4C233.94,-158.77 209.85,-146.09 191.79,-136.58"/>
<polygon fill="midnightblue" stroke="midnightblue" points="192.92,-133.22 182.44,-131.66 189.66,-139.41 192.92,-133.22"/>
</g>
<!-- Node6 -->
<g id="node6" class="node">
<title>Node6</title>
<g id="a_node6"><a xlink:href="threshold_8hpp.html" target="_top" xlink:title=" ">
<polygon fill="white" stroke="black" points="194,-56.5 194,-75.5 322,-75.5 322,-56.5 194,-56.5"/>
<text text-anchor="middle" x="258" y="-63.5" font-family="Helvetica,sans-Serif" font-size="10.00">ads1115/threshold.hpp</text>
</a>
</g>
</g>
<!-- Node1&#45;&gt;Node6 -->
<g id="edge6" class="edge">
<title>Node1&#45;&gt;Node6</title>
<path fill="none" stroke="midnightblue" d="M276.42,-168.34C272.64,-147.53 265.58,-108.66 261.38,-85.58"/>
<polygon fill="midnightblue" stroke="midnightblue" points="264.81,-84.88 259.58,-75.67 257.92,-86.13 264.81,-84.88"/>
</g>
<!-- Node7 -->
<g id="node7" class="node">
<title>Node7</title>
<g id="a_node7"><a xlink:title=" ">
<polygon fill="white" stroke="#bfbfbf" points="282,-112.5 282,-131.5 328,-131.5 328,-112.5 282,-112.5"/>
<text text-anchor="middle" x="305" y="-119.5" font-family="Helvetica,sans-Serif" font-size="10.00">cstdio</text>
</a>
</g>
</g>
<!-- Node1&#45;&gt;Node7 -->
<g id="edge8" class="edge">
<title>Node1&#45;&gt;Node7</title>
<path fill="none" stroke="midnightblue" d="M285.16,-168.4C288.74,-160.2 293.3,-149.78 297.14,-140.99"/>
<polygon fill="midnightblue" stroke="midnightblue" points="300.42,-142.22 301.22,-131.66 294.01,-139.42 300.42,-142.22"/>
</g>
<!-- Node8 -->
<g id="node8" class="node">
<title>Node8</title>
<g id="a_node8"><a xlink:title=" ">
<polygon fill="white" stroke="#bfbfbf" points="346,-112.5 346,-131.5 414,-131.5 414,-112.5 346,-112.5"/>
<text text-anchor="middle" x="380" y="-119.5" font-family="Helvetica,sans-Serif" font-size="10.00">filesystem</text>
</a>
</g>
</g>
<!-- Node1&#45;&gt;Node8 -->
<g id="edge9" class="edge">
<title>Node1&#45;&gt;Node8</title>
<path fill="none" stroke="midnightblue" d="M302.94,-168.4C319.13,-158.86 340.41,-146.32 356.5,-136.84"/>
<polygon fill="midnightblue" stroke="midnightblue" points="358.46,-139.75 365.3,-131.66 354.91,-133.72 358.46,-139.75"/>
</g>
<!-- Node3 -->
<g id="node3" class="node">
<title>Node3</title>
<g id="a_node3"><a xlink:href="parameters_8hpp.html" target="_top" xlink:title=" ">
<polygon fill="white" stroke="black" points="0,-56.5 0,-75.5 138,-75.5 138,-56.5 0,-56.5"/>
<text text-anchor="middle" x="69" y="-63.5" font-family="Helvetica,sans-Serif" font-size="10.00">ads1115/parameters.hpp</text>
</a>
</g>
</g>
<!-- Node2&#45;&gt;Node3 -->
<g id="edge2" class="edge">
<title>Node2&#45;&gt;Node3</title>
<path fill="none" stroke="midnightblue" d="M150.42,-112.32C135,-103.74 111.19,-90.49 93.29,-80.52"/>
<polygon fill="midnightblue" stroke="midnightblue" points="94.99,-77.46 84.55,-75.65 91.58,-83.58 94.99,-77.46"/>
</g>
<!-- Node4 -->
<g id="node4" class="node">
<title>Node4</title>
<g id="a_node4"><a xlink:title=" ">
<polygon fill="white" stroke="#bfbfbf" points="141,-0.5 141,-19.5 191,-19.5 191,-0.5 141,-0.5"/>
<text text-anchor="middle" x="166" y="-7.5" font-family="Helvetica,sans-Serif" font-size="10.00">cstdint</text>
</a>
</g>
</g>
<!-- Node2&#45;&gt;Node4 -->
<g id="edge5" class="edge">
<title>Node2&#45;&gt;Node4</title>
<path fill="none" stroke="midnightblue" d="M166,-112.37C166,-94.62 166,-53.67 166,-29.6"/>
<polygon fill="midnightblue" stroke="midnightblue" points="169.5,-29.59 166,-19.59 162.5,-29.59 169.5,-29.59"/>
</g>
<!-- Node3&#45;&gt;Node4 -->
<g id="edge3" class="edge">
<title>Node3&#45;&gt;Node4</title>
<path fill="none" stroke="midnightblue" d="M84.58,-56.32C100,-47.74 123.81,-34.49 141.71,-24.52"/>
<polygon fill="midnightblue" stroke="midnightblue" points="143.42,-27.58 150.45,-19.65 140.01,-21.46 143.42,-27.58"/>
</g>
<!-- Node5 -->
<g id="node5" class="node">
<title>Node5</title>
<g id="a_node5"><a xlink:title=" ">
<polygon fill="white" stroke="#bfbfbf" points="22.5,-0.5 22.5,-19.5 115.5,-19.5 115.5,-0.5 22.5,-0.5"/>
<text text-anchor="middle" x="69" y="-7.5" font-family="Helvetica,sans-Serif" font-size="10.00">unordered_map</text>
</a>
</g>
</g>
<!-- Node3&#45;&gt;Node5 -->
<g id="edge4" class="edge">
<title>Node3&#45;&gt;Node5</title>
<path fill="none" stroke="midnightblue" d="M69,-56.08C69,-49.01 69,-38.86 69,-29.99"/>
<polygon fill="midnightblue" stroke="midnightblue" points="72.5,-29.75 69,-19.75 65.5,-29.75 72.5,-29.75"/>
</g>
<!-- Node6&#45;&gt;Node4 -->
<g id="edge7" class="edge">
<title>Node6&#45;&gt;Node4</title>
<path fill="none" stroke="midnightblue" d="M243.22,-56.32C228.73,-47.82 206.43,-34.73 189.51,-24.8"/>
<polygon fill="midnightblue" stroke="midnightblue" points="191.14,-21.7 180.74,-19.65 187.6,-27.74 191.14,-21.7"/>
</g>
</g>
</svg>
