<?xml version="1.0" encoding="UTF-8" standalone="no"?>
<!DOCTYPE svg PUBLIC "-//W3C//DTD SVG 1.1//EN"
 "http://www.w3.org/Graphics/SVG/1.1/DTD/svg11.dtd">
<!-- Generated by graphviz version 2.43.0 (0)
 -->
<!-- Title: ads1115/src/config.cpp Pages: 1 -->
<svg width="355pt" height="207pt"
 viewBox="0.00 0.00 354.76 207.00" xmlns="http://www.w3.org/2000/svg" xmlns:xlink="http://www.w3.org/1999/xlink">
<g id="graph0" class="graph" transform="scale(1 1) rotate(0) translate(4 203)">
<title>ads1115/src/config.cpp</title>
<polygon fill="white" stroke="transparent" points="-4,4 -4,-203 350.76,-203 350.76,4 -4,4"/>
<!-- Node1 -->
<g id="node1" class="node">
<title>Node1</title>
<g id="a_node1"><a xlink:title=" ">
<polygon fill="#bfbfbf" stroke="black" points="116.76,-179.5 116.76,-198.5 244.76,-198.5 244.76,-179.5 116.76,-179.5"/>
<text text-anchor="middle" x="180.76" y="-186.5" font-family="Helvetica,sans-Serif" font-size="10.00">ads1115/src/config.cpp</text>
</a>
</g>
</g>
<!-- Node2 -->
<g id="node2" class="node">
<title>Node2</title>
<g id="a_node2"><a xlink:href="config_8hpp.html" target="_top" xlink:title=" ">
<polygon fill="white" stroke="black" points="125.26,-123.5 125.26,-142.5 236.26,-142.5 236.26,-123.5 125.26,-123.5"/>
<text text-anchor="middle" x="180.76" y="-130.5" font-family="Helvetica,sans-Serif" font-size="10.00">ads1115/config.hpp</text>
</a>
</g>
</g>
<!-- Node1&#45;&gt;Node2 -->
<g id="edge1" class="edge">
<title>Node1&#45;&gt;Node2</title>
<path fill="none" stroke="midnightblue" d="M180.76,-179.08C180.76,-172.01 180.76,-161.86 180.76,-152.99"/>
<polygon fill="midnightblue" stroke="midnightblue" points="184.26,-152.75 180.76,-142.75 177.26,-152.75 184.26,-152.75"/>
</g>
<!-- Node4 -->
<g id="node4" class="node">
<title>Node4</title>
<g id="a_node4"><a xlink:href="parameters_8hpp.html" target="_top" xlink:title=" ">
<polygon fill="white" stroke="black" points="208.76,-62 208.76,-81 346.76,-81 346.76,-62 208.76,-62"/>
<text text-anchor="middle" x="277.76" y="-69" font-family="Helvetica,sans-Serif" font-size="10.00">ads1115/parameters.hpp</text>
</a>
</g>
</g>
<!-- Node1&#45;&gt;Node4 -->
<g id="edge7" class="edge">
<title>Node1&#45;&gt;Node4</title>
<path fill="none" stroke="midnightblue" d="M198.17,-179.37C212.51,-171.54 232.56,-158.8 245.76,-143 258.65,-127.56 267.41,-106.07 272.45,-90.89"/>
<polygon fill="midnightblue" stroke="midnightblue" points="275.86,-91.71 275.48,-81.13 269.18,-89.64 275.86,-91.71"/>
</g>
<!-- Node5 -->
<g id="node5" class="node">
<title>Node5</title>
<g id="a_node5"><a xlink:title=" ">
<polygon fill="white" stroke="#bfbfbf" points="155.76,-0.5 155.76,-19.5 205.76,-19.5 205.76,-0.5 155.76,-0.5"/>
<text text-anchor="middle" x="180.76" y="-7.5" font-family="Helvetica,sans-Serif" font-size="10.00">cstdint</text>
</a>
</g>
</g>
<!-- Node1&#45;&gt;Node5 -->
<g id="edge8" class="edge">
<title>Node1&#45;&gt;Node5</title>
<path fill="none" stroke="midnightblue" d="M150.05,-179.38C89.59,-160.9 -35.24,-114.37 9.76,-56 26.23,-34.63 100.72,-21.39 145.78,-15.19"/>
<polygon fill="midnightblue" stroke="midnightblue" points="146.28,-18.65 155.73,-13.87 145.36,-11.71 146.28,-18.65"/>
</g>
<!-- Node3 -->
<g id="node3" class="node">
<title>Node3</title>
<g id="a_node3"><a xlink:href="ads1115__export_8h.html" target="_top" xlink:title=" ">
<polygon fill="white" stroke="black" points="19.26,-56.5 19.26,-86.5 152.26,-86.5 152.26,-56.5 19.26,-56.5"/>
<text text-anchor="start" x="27.26" y="-74.5" font-family="Helvetica,sans-Serif" font-size="10.00">ads1115/detail/ads1115</text>
<text text-anchor="middle" x="85.76" y="-63.5" font-family="Helvetica,sans-Serif" font-size="10.00">_export.h</text>
</a>
</g>
</g>
<!-- Node2&#45;&gt;Node3 -->
<g id="edge2" class="edge">
<title>Node2&#45;&gt;Node3</title>
<path fill="none" stroke="midnightblue" d="M167.15,-123.48C154.04,-115.27 133.75,-102.56 116.71,-91.88"/>
<polygon fill="midnightblue" stroke="midnightblue" points="118.48,-88.86 108.15,-86.52 114.76,-94.8 118.48,-88.86"/>
</g>
<!-- Node2&#45;&gt;Node4 -->
<g id="edge3" class="edge">
<title>Node2&#45;&gt;Node4</title>
<path fill="none" stroke="midnightblue" d="M194.65,-123.48C210.43,-113.8 236.39,-97.87 255.11,-86.39"/>
<polygon fill="midnightblue" stroke="midnightblue" points="257.19,-89.22 263.88,-81.01 253.53,-83.25 257.19,-89.22"/>
</g>
<!-- Node2&#45;&gt;Node5 -->
<g id="edge6" class="edge">
<title>Node2&#45;&gt;Node5</title>
<path fill="none" stroke="midnightblue" d="M180.76,-123.3C180.76,-103.85 180.76,-56.49 180.76,-29.9"/>
<polygon fill="midnightblue" stroke="midnightblue" points="184.26,-29.62 180.76,-19.62 177.26,-29.62 184.26,-29.62"/>
</g>
<!-- Node4&#45;&gt;Node5 -->
<g id="edge4" class="edge">
<title>Node4&#45;&gt;Node5</title>
<path fill="none" stroke="midnightblue" d="M263.86,-61.98C248.08,-52.3 222.12,-36.37 203.41,-24.89"/>
<polygon fill="midnightblue" stroke="midnightblue" points="204.98,-21.75 194.63,-19.51 201.32,-27.72 204.98,-21.75"/>
</g>
<!-- Node6 -->
<g id="node6" class="node">
<title>Node6</title>
<g id="a_node6"><a xlink:title=" ">
<polygon fill="white" stroke="#bfbfbf" points="231.26,-0.5 231.26,-19.5 324.26,-19.5 324.26,-0.5 231.26,-0.5"/>
<text text-anchor="middle" x="277.76" y="-7.5" font-family="Helvetica,sans-Serif" font-size="10.00">unordered_map</text>
</a>
</g>
</g>
<!-- Node4&#45;&gt;Node6 -->
<g id="edge5" class="edge">
<title>Node4&#45;&gt;Node6</title>
<path fill="none" stroke="midnightblue" d="M277.76,-61.98C277.76,-53.58 277.76,-40.48 277.76,-29.66"/>
<polygon fill="midnightblue" stroke="midnightblue" points="281.26,-29.51 277.76,-19.51 274.26,-29.51 281.26,-29.51"/>
</g>
</g>
</svg>
