<?xml version="1.0" encoding="UTF-8" standalone="no"?>
<!DOCTYPE svg PUBLIC "-//W3C//DTD SVG 1.1//EN"
 "http://www.w3.org/Graphics/SVG/1.1/DTD/svg11.dtd">
<!-- Generated by graphviz version 2.43.0 (0)
 -->
<!-- Title: ads1115/include/ads1115/ads1115.hpp Pages: 1 -->
<svg width="288pt" height="95pt"
 viewBox="0.00 0.00 288.00 95.00" xmlns="http://www.w3.org/2000/svg" xmlns:xlink="http://www.w3.org/1999/xlink">
<g id="graph0" class="graph" transform="scale(1 1) rotate(0) translate(4 91)">
<title>ads1115/include/ads1115/ads1115.hpp</title>
<polygon fill="white" stroke="transparent" points="-4,4 -4,-91 284,-91 284,4 -4,4"/>
<!-- Node1 -->
<g id="node1" class="node">
<title>Node1</title>
<g id="a_node1"><a xlink:title=" ">
<polygon fill="#bfbfbf" stroke="black" points="74,-56.5 74,-86.5 214,-86.5 214,-56.5 74,-56.5"/>
<text text-anchor="start" x="82" y="-74.5" font-family="Helvetica,sans-Serif" font-size="10.00">ads1115/include/ads1115</text>
<text text-anchor="middle" x="144" y="-63.5" font-family="Helvetica,sans-Serif" font-size="10.00">/ads1115.hpp</text>
</a>
</g>
</g>
<!-- Node2 -->
<g id="node2" class="node">
<title>Node2</title>
<g id="a_node2"><a xlink:href="ads1115_2src_2ads1115_8cpp.html" target="_top" xlink:title=" ">
<polygon fill="white" stroke="black" points="0,-0.5 0,-19.5 140,-19.5 140,-0.5 0,-0.5"/>
<text text-anchor="middle" x="70" y="-7.5" font-family="Helvetica,sans-Serif" font-size="10.00">ads1115/src/ads1115.cpp</text>
</a>
</g>
</g>
<!-- Node1&#45;&gt;Node2 -->
<g id="edge1" class="edge">
<title>Node1&#45;&gt;Node2</title>
<path fill="none" stroke="midnightblue" d="M118.37,-49.89C105.5,-39.54 90.59,-27.56 80.77,-19.66"/>
<polygon fill="midnightblue" stroke="midnightblue" points="116.48,-52.86 126.46,-56.4 120.86,-47.41 116.48,-52.86"/>
</g>
<!-- Node3 -->
<g id="node3" class="node">
<title>Node3</title>
<g id="a_node3"><a xlink:href="tests_2src_2ads1115_8cpp.html" target="_top" xlink:title=" ">
<polygon fill="white" stroke="black" points="158,-0.5 158,-19.5 280,-19.5 280,-0.5 158,-0.5"/>
<text text-anchor="middle" x="219" y="-7.5" font-family="Helvetica,sans-Serif" font-size="10.00">tests/src/ads1115.cpp</text>
</a>
</g>
</g>
<!-- Node1&#45;&gt;Node3 -->
<g id="edge2" class="edge">
<title>Node1&#45;&gt;Node3</title>
<path fill="none" stroke="midnightblue" d="M169.97,-49.89C183.02,-39.54 198.13,-27.56 208.09,-19.66"/>
<polygon fill="midnightblue" stroke="midnightblue" points="167.43,-47.44 161.77,-56.4 171.78,-52.93 167.43,-47.44"/>
</g>
</g>
</svg>
