<?xml version="1.0" encoding="UTF-8" standalone="no"?>
<!DOCTYPE svg PUBLIC "-//W3C//DTD SVG 1.1//EN"
 "http://www.w3.org/Graphics/SVG/1.1/DTD/svg11.dtd">
<!-- Generated by graphviz version 2.43.0 (0)
 -->
<!-- Title: ads1115/src/ads1115.cpp Pages: 1 -->
<!--zoomable 252 -->
<svg id="main" version="1.1" xmlns="http://www.w3.org/2000/svg" xmlns:xlink="http://www.w3.org/1999/xlink" xml:space="preserve" onload="init(evt)">
<style type="text/css"><![CDATA[
.edge:hover path { stroke: red; }
.edge:hover polygon { stroke: red; fill: red; }
]]></style>
<script type="text/javascript"><![CDATA[
var edges = document.getElementsByTagName('g');
if (edges && edges.length) {
  for (var i=0;i<edges.length;i++) {
    if (edges[i].id.substr(0,4)=='edge') {
      edges[i].setAttribute('class','edge');
    }
  }
}
]]></script>
        <defs>
                <circle id="rim" cx="0" cy="0" r="7"/>
                <circle id="rim2" cx="0" cy="0" r="3.5"/>
                <g id="zoomPlus">
                        <use xlink:href="#rim" fill="#404040">
                                <set attributeName="fill" to="#808080" begin="zoomplus.mouseover" end="zoomplus.mouseout"/>
                        </use>
                        <path d="M-4,0h8M0,-4v8" fill="none" stroke="white" stroke-width="1.5" pointer-events="none"/>
                </g>
                <g id="zoomMin">
                        <use xlink:href="#rim" fill="#404040">
                                <set attributeName="fill" to="#808080" begin="zoomminus.mouseover" end="zoomminus.mouseout"/>
                        </use>
                        <path d="M-4,0h8" fill="none" stroke="white" stroke-width="1.5" pointer-events="none"/>
                </g>
                <g id="dirArrow">
                        <path fill="none" stroke="white" stroke-width="1.5" d="M0,-3.0v7 M-2.5,-0.5L0,-3.0L2.5,-0.5"/>
                </g>
               <g id="resetDef">
                       <use xlink:href="#rim2" fill="#404040">
                               <set attributeName="fill" to="#808080" begin="reset.mouseover" end="reset.mouseout"/>
                       </use>
               </g>
        </defs>

<script type="text/javascript">
var viewWidth = 1477;
var viewHeight = 252;
var sectionId = 'dynsection-0';
</script>
<script xlink:href="svgpan.js"/>
<svg id="graph" class="graph">
<g id="viewport">
<title>ads1115/src/ads1115.cpp</title>
<polygon fill="white" stroke="transparent" points="-4,4 -4,-248 1473,-248 1473,4 -4,4"/>
<!-- Node1 -->
<g id="node1" class="node">
<title>Node1</title>
<g id="a_node1"><a xlink:title=" ">
<polygon fill="#bfbfbf" stroke="black" points="630,-224.5 630,-243.5 770,-243.5 770,-224.5 630,-224.5"/>
<text text-anchor="middle" x="700" y="-231.5" font-family="Helvetica,sans-Serif" font-size="10.00">ads1115/src/ads1115.cpp</text>
</a>
</g>
</g>
<!-- Node2 -->
<g id="node2" class="node">
<title>Node2</title>
<g id="a_node2"><a xlink:href="ads1115_8hpp.html" target="_top" xlink:title=" ">
<polygon fill="white" stroke="black" points="232.5,-168.5 232.5,-187.5 355.5,-187.5 355.5,-168.5 232.5,-168.5"/>
<text text-anchor="middle" x="294" y="-175.5" font-family="Helvetica,sans-Serif" font-size="10.00">ads1115/ads1115.hpp</text>
</a>
</g>
</g>
<!-- Node1&#45;&gt;Node2 -->
<g id="edge1" class="edge">
<title>Node1&#45;&gt;Node2</title>
<path fill="none" stroke="midnightblue" d="M635.67,-224.44C562.16,-214.67 442.19,-198.71 365.73,-188.54"/>
<polygon fill="midnightblue" stroke="midnightblue" points="366.08,-185.06 355.7,-187.21 365.15,-191.99 366.08,-185.06"/>
</g>
<!-- Node3 -->
<g id="node3" class="node">
<title>Node3</title>
<g id="a_node3"><a xlink:href="config_8hpp.html" target="_top" xlink:title=" ">
<polygon fill="white" stroke="black" points="64.5,-112.5 64.5,-131.5 175.5,-131.5 175.5,-112.5 64.5,-112.5"/>
<text text-anchor="middle" x="120" y="-119.5" font-family="Helvetica,sans-Serif" font-size="10.00">ads1115/config.hpp</text>
</a>
</g>
</g>
<!-- Node1&#45;&gt;Node3 -->
<g id="edge15" class="edge">
<title>Node1&#45;&gt;Node3</title>
<path fill="none" stroke="midnightblue" d="M629.74,-232.38C508.8,-230.4 266.86,-222.16 190,-188 166.18,-177.42 145.23,-155.33 132.6,-139.85"/>
<polygon fill="midnightblue" stroke="midnightblue" points="135.08,-137.36 126.16,-131.64 129.57,-141.67 135.08,-137.36"/>
</g>
<!-- Node4 -->
<g id="node4" class="node">
<title>Node4</title>
<g id="a_node4"><a xlink:href="parameters_8hpp.html" target="_top" xlink:title=" ">
<polygon fill="white" stroke="black" points="0,-56.5 0,-75.5 138,-75.5 138,-56.5 0,-56.5"/>
<text text-anchor="middle" x="69" y="-63.5" font-family="Helvetica,sans-Serif" font-size="10.00">ads1115/parameters.hpp</text>
</a>
</g>
</g>
<!-- Node1&#45;&gt;Node4 -->
<g id="edge16" class="edge">
<title>Node1&#45;&gt;Node4</title>
<path fill="none" stroke="midnightblue" d="M629.84,-230.87C503.48,-226.42 242.72,-214.29 156,-188 106.88,-173.11 81.05,-176.23 55,-132 46.42,-117.43 52.24,-98.26 58.79,-84.52"/>
<polygon fill="midnightblue" stroke="midnightblue" points="61.92,-86.09 63.49,-75.62 55.73,-82.82 61.92,-86.09"/>
</g>
<!-- Node5 -->
<g id="node5" class="node">
<title>Node5</title>
<g id="a_node5"><a xlink:title=" ">
<polygon fill="white" stroke="#bfbfbf" points="160,-0.5 160,-19.5 210,-19.5 210,-0.5 160,-0.5"/>
<text text-anchor="middle" x="185" y="-7.5" font-family="Helvetica,sans-Serif" font-size="10.00">cstdint</text>
</a>
</g>
</g>
<!-- Node1&#45;&gt;Node5 -->
<g id="edge26" class="edge">
<title>Node1&#45;&gt;Node5</title>
<path fill="none" stroke="midnightblue" d="M629.6,-230.89C504.26,-226.48 252.72,-214.42 223,-188 177.43,-147.49 179.1,-66.73 182.59,-29.99"/>
<polygon fill="midnightblue" stroke="midnightblue" points="186.1,-30.04 183.73,-19.71 179.15,-29.27 186.1,-30.04"/>
</g>
<!-- Node8 -->
<g id="node8" class="node">
<title>Node8</title>
<g id="a_node8"><a xlink:title=" ">
<polygon fill="white" stroke="#bfbfbf" points="313,-112.5 313,-131.5 359,-131.5 359,-112.5 313,-112.5"/>
<text text-anchor="middle" x="336" y="-119.5" font-family="Helvetica,sans-Serif" font-size="10.00">cstdio</text>
</a>
</g>
</g>
<!-- Node1&#45;&gt;Node8 -->
<g id="edge27" class="edge">
<title>Node1&#45;&gt;Node8</title>
<path fill="none" stroke="midnightblue" d="M629.93,-228.1C576.7,-222.67 502.43,-211.35 441,-188 408.35,-175.59 374.74,-152.66 354.61,-137.62"/>
<polygon fill="midnightblue" stroke="midnightblue" points="356.68,-134.79 346.6,-131.52 352.44,-140.36 356.68,-134.79"/>
</g>
<!-- Node9 -->
<g id="node9" class="node">
<title>Node9</title>
<g id="a_node9"><a xlink:title=" ">
<polygon fill="white" stroke="#bfbfbf" points="377,-112.5 377,-131.5 445,-131.5 445,-112.5 377,-112.5"/>
<text text-anchor="middle" x="411" y="-119.5" font-family="Helvetica,sans-Serif" font-size="10.00">filesystem</text>
</a>
</g>
</g>
<!-- Node1&#45;&gt;Node9 -->
<g id="edge28" class="edge">
<title>Node1&#45;&gt;Node9</title>
<path fill="none" stroke="midnightblue" d="M629.91,-231.19C581.6,-227.22 517.46,-216.4 468,-188 448.14,-176.6 431.71,-155.7 421.67,-140.67"/>
<polygon fill="midnightblue" stroke="midnightblue" points="424.35,-138.36 416.02,-131.8 418.44,-142.12 424.35,-138.36"/>
</g>
<!-- Node10 -->
<g id="node10" class="node">
<title>Node10</title>
<g id="a_node10"><a xlink:href="bit_8hpp.html" target="_top" xlink:title=" ">
<polygon fill="white" stroke="black" points="488.5,-168.5 488.5,-187.5 583.5,-187.5 583.5,-168.5 488.5,-168.5"/>
<text text-anchor="middle" x="536" y="-175.5" font-family="Helvetica,sans-Serif" font-size="10.00">ads1115/bit.hpp</text>
</a>
</g>
</g>
<!-- Node1&#45;&gt;Node10 -->
<g id="edge11" class="edge">
<title>Node1&#45;&gt;Node10</title>
<path fill="none" stroke="midnightblue" d="M674.01,-224.44C646.3,-215.32 602.25,-200.81 571.38,-190.65"/>
<polygon fill="midnightblue" stroke="midnightblue" points="572.46,-187.32 561.86,-187.52 570.27,-193.97 572.46,-187.32"/>
</g>
<!-- Node11 -->
<g id="node11" class="node">
<title>Node11</title>
<g id="a_node11"><a xlink:title=" ">
<polygon fill="white" stroke="#bfbfbf" points="463.5,-112.5 463.5,-131.5 492.5,-131.5 492.5,-112.5 463.5,-112.5"/>
<text text-anchor="middle" x="478" y="-119.5" font-family="Helvetica,sans-Serif" font-size="10.00">bit</text>
</a>
</g>
</g>
<!-- Node1&#45;&gt;Node11 -->
<g id="edge24" class="edge">
<title>Node1&#45;&gt;Node11</title>
<path fill="none" stroke="midnightblue" d="M629.91,-228.12C572.6,-222.51 498.03,-210.94 479,-188 468.43,-175.27 469.64,-155.8 472.6,-141.48"/>
<polygon fill="midnightblue" stroke="midnightblue" points="476.01,-142.29 475.05,-131.74 469.22,-140.59 476.01,-142.29"/>
</g>
<!-- Node14 -->
<g id="node14" class="node">
<title>Node14</title>
<g id="a_node14"><a xlink:title=" ">
<polygon fill="white" stroke="#bfbfbf" points="601.5,-168.5 601.5,-187.5 648.5,-187.5 648.5,-168.5 601.5,-168.5"/>
<text text-anchor="middle" x="625" y="-175.5" font-family="Helvetica,sans-Serif" font-size="10.00">fcntl.h</text>
</a>
</g>
</g>
<!-- Node1&#45;&gt;Node14 -->
<g id="edge17" class="edge">
<title>Node1&#45;&gt;Node14</title>
<path fill="none" stroke="midnightblue" d="M687.95,-224.32C676.54,-216.11 659.17,-203.6 645.57,-193.81"/>
<polygon fill="midnightblue" stroke="midnightblue" points="647.43,-190.84 637.27,-187.83 643.34,-196.52 647.43,-190.84"/>
</g>
<!-- Node15 -->
<g id="node15" class="node">
<title>Node15</title>
<g id="a_node15"><a xlink:title=" ">
<polygon fill="white" stroke="#bfbfbf" points="667,-168.5 667,-187.5 733,-187.5 733,-168.5 667,-168.5"/>
<text text-anchor="middle" x="700" y="-175.5" font-family="Helvetica,sans-Serif" font-size="10.00">sys/ioctl.h</text>
</a>
</g>
</g>
<!-- Node1&#45;&gt;Node15 -->
<g id="edge18" class="edge">
<title>Node1&#45;&gt;Node15</title>
<path fill="none" stroke="midnightblue" d="M700,-224.08C700,-217.01 700,-206.86 700,-197.99"/>
<polygon fill="midnightblue" stroke="midnightblue" points="703.5,-197.75 700,-187.75 696.5,-197.75 703.5,-197.75"/>
</g>
<!-- Node16 -->
<g id="node16" class="node">
<title>Node16</title>
<g id="a_node16"><a xlink:title=" ">
<polygon fill="white" stroke="#bfbfbf" points="751,-168.5 751,-187.5 815,-187.5 815,-168.5 751,-168.5"/>
<text text-anchor="middle" x="783" y="-175.5" font-family="Helvetica,sans-Serif" font-size="10.00">sys/stat.h</text>
</a>
</g>
</g>
<!-- Node1&#45;&gt;Node16 -->
<g id="edge19" class="edge">
<title>Node1&#45;&gt;Node16</title>
<path fill="none" stroke="midnightblue" d="M713.34,-224.32C726.16,-215.98 745.78,-203.21 760.94,-193.35"/>
<polygon fill="midnightblue" stroke="midnightblue" points="763.22,-196.04 769.7,-187.65 759.41,-190.17 763.22,-196.04"/>
</g>
<!-- Node17 -->
<g id="node17" class="node">
<title>Node17</title>
<g id="a_node17"><a xlink:title=" ">
<polygon fill="white" stroke="#bfbfbf" points="833,-168.5 833,-187.5 905,-187.5 905,-168.5 833,-168.5"/>
<text text-anchor="middle" x="869" y="-175.5" font-family="Helvetica,sans-Serif" font-size="10.00">sys/types.h</text>
</a>
</g>
</g>
<!-- Node1&#45;&gt;Node17 -->
<g id="edge20" class="edge">
<title>Node1&#45;&gt;Node17</title>
<path fill="none" stroke="midnightblue" d="M726.78,-224.44C755.33,-215.32 800.73,-200.81 832.54,-190.65"/>
<polygon fill="midnightblue" stroke="midnightblue" points="833.89,-193.89 842.35,-187.52 831.76,-187.23 833.89,-193.89"/>
</g>
<!-- Node18 -->
<g id="node18" class="node">
<title>Node18</title>
<g id="a_node18"><a xlink:title=" ">
<polygon fill="white" stroke="#bfbfbf" points="923,-168.5 923,-187.5 979,-187.5 979,-168.5 923,-168.5"/>
<text text-anchor="middle" x="951" y="-175.5" font-family="Helvetica,sans-Serif" font-size="10.00">unistd.h</text>
</a>
</g>
</g>
<!-- Node1&#45;&gt;Node18 -->
<g id="edge21" class="edge">
<title>Node1&#45;&gt;Node18</title>
<path fill="none" stroke="midnightblue" d="M742.72,-224.43C783.86,-216.08 848.1,-202.81 912.78,-188.23"/>
<polygon fill="midnightblue" stroke="midnightblue" points="913.76,-191.59 922.74,-185.97 912.21,-184.77 913.76,-191.59"/>
</g>
<!-- Node19 -->
<g id="node19" class="node">
<title>Node19</title>
<g id="a_node19"><a xlink:title=" ">
<polygon fill="white" stroke="#bfbfbf" points="997.5,-168.5 997.5,-187.5 1072.5,-187.5 1072.5,-168.5 997.5,-168.5"/>
<text text-anchor="middle" x="1035" y="-175.5" font-family="Helvetica,sans-Serif" font-size="10.00">i2c/smbus.h</text>
</a>
</g>
</g>
<!-- Node1&#45;&gt;Node19 -->
<g id="edge22" class="edge">
<title>Node1&#45;&gt;Node19</title>
<path fill="none" stroke="midnightblue" d="M758.29,-224.49C814.38,-216.17 901.81,-202.84 987.42,-188.05"/>
<polygon fill="midnightblue" stroke="midnightblue" points="988.06,-191.49 997.31,-186.33 986.86,-184.6 988.06,-191.49"/>
</g>
<!-- Node20 -->
<g id="node20" class="node">
<title>Node20</title>
<g id="a_node20"><a xlink:title=" ">
<polygon fill="white" stroke="#bfbfbf" points="1090,-168.5 1090,-187.5 1178,-187.5 1178,-168.5 1090,-168.5"/>
<text text-anchor="middle" x="1134" y="-175.5" font-family="Helvetica,sans-Serif" font-size="10.00">linux/i2c&#45;dev.h</text>
</a>
</g>
</g>
<!-- Node1&#45;&gt;Node20 -->
<g id="edge23" class="edge">
<title>Node1&#45;&gt;Node20</title>
<path fill="none" stroke="midnightblue" d="M770.2,-225.88C844.77,-218.06 966.33,-204.57 1079.87,-188.26"/>
<polygon fill="midnightblue" stroke="midnightblue" points="1080.38,-191.72 1089.77,-186.82 1079.37,-184.79 1080.38,-191.72"/>
</g>
<!-- Node21 -->
<g id="node21" class="node">
<title>Node21</title>
<g id="a_node21"><a xlink:title=" ">
<polygon fill="white" stroke="#bfbfbf" points="1196,-168.5 1196,-187.5 1246,-187.5 1246,-168.5 1196,-168.5"/>
<text text-anchor="middle" x="1221" y="-175.5" font-family="Helvetica,sans-Serif" font-size="10.00">chrono</text>
</a>
</g>
</g>
<!-- Node1&#45;&gt;Node21 -->
<g id="edge25" class="edge">
<title>Node1&#45;&gt;Node21</title>
<path fill="none" stroke="midnightblue" d="M770.25,-230.19C863.3,-225.64 1032.59,-214.54 1185.79,-187.93"/>
<polygon fill="midnightblue" stroke="midnightblue" points="1186.61,-191.34 1195.85,-186.16 1185.4,-184.45 1186.61,-191.34"/>
</g>
<!-- Node22 -->
<g id="node22" class="node">
<title>Node22</title>
<g id="a_node22"><a xlink:title=" ">
<polygon fill="white" stroke="#bfbfbf" points="1264.5,-168.5 1264.5,-187.5 1319.5,-187.5 1319.5,-168.5 1264.5,-168.5"/>
<text text-anchor="middle" x="1292" y="-175.5" font-family="Helvetica,sans-Serif" font-size="10.00">fstream</text>
</a>
</g>
</g>
<!-- Node1&#45;&gt;Node22 -->
<g id="edge29" class="edge">
<title>Node1&#45;&gt;Node22</title>
<path fill="none" stroke="midnightblue" d="M770.08,-230.86C873.86,-226.91 1074.6,-216.27 1254.32,-187.84"/>
<polygon fill="midnightblue" stroke="midnightblue" points="1254.9,-191.3 1264.22,-186.26 1253.79,-184.38 1254.9,-191.3"/>
</g>
<!-- Node23 -->
<g id="node23" class="node">
<title>Node23</title>
<g id="a_node23"><a xlink:title=" ">
<polygon fill="white" stroke="#bfbfbf" points="1337.5,-168.5 1337.5,-187.5 1402.5,-187.5 1402.5,-168.5 1337.5,-168.5"/>
<text text-anchor="middle" x="1370" y="-175.5" font-family="Helvetica,sans-Serif" font-size="10.00">stdexcept</text>
</a>
</g>
</g>
<!-- Node1&#45;&gt;Node23 -->
<g id="edge30" class="edge">
<title>Node1&#45;&gt;Node23</title>
<path fill="none" stroke="midnightblue" d="M770.16,-231.29C884.86,-227.77 1119.74,-217.51 1327.23,-188.06"/>
<polygon fill="midnightblue" stroke="midnightblue" points="1328,-191.49 1337.4,-186.6 1327.01,-184.56 1328,-191.49"/>
</g>
<!-- Node24 -->
<g id="node24" class="node">
<title>Node24</title>
<g id="a_node24"><a xlink:title=" ">
<polygon fill="white" stroke="#bfbfbf" points="1421,-168.5 1421,-187.5 1469,-187.5 1469,-168.5 1421,-168.5"/>
<text text-anchor="middle" x="1445" y="-175.5" font-family="Helvetica,sans-Serif" font-size="10.00">thread</text>
</a>
</g>
</g>
<!-- Node1&#45;&gt;Node24 -->
<g id="edge31" class="edge">
<title>Node1&#45;&gt;Node24</title>
<path fill="none" stroke="midnightblue" d="M770.02,-233.27C896.51,-232.73 1171.44,-226.87 1411.03,-187.8"/>
<polygon fill="midnightblue" stroke="midnightblue" points="1411.68,-191.24 1420.97,-186.16 1410.54,-184.34 1411.68,-191.24"/>
</g>
<!-- Node2&#45;&gt;Node3 -->
<g id="edge2" class="edge">
<title>Node2&#45;&gt;Node3</title>
<path fill="none" stroke="midnightblue" d="M266.43,-168.44C236.9,-159.28 189.88,-144.69 157.12,-134.52"/>
<polygon fill="midnightblue" stroke="midnightblue" points="158.03,-131.14 147.44,-131.52 155.96,-137.82 158.03,-131.14"/>
</g>
<!-- Node7 -->
<g id="node7" class="node">
<title>Node7</title>
<g id="a_node7"><a xlink:href="threshold_8hpp.html" target="_top" xlink:title=" ">
<polygon fill="white" stroke="black" points="232,-56.5 232,-75.5 360,-75.5 360,-56.5 232,-56.5"/>
<text text-anchor="middle" x="296" y="-63.5" font-family="Helvetica,sans-Serif" font-size="10.00">ads1115/threshold.hpp</text>
</a>
</g>
</g>
<!-- Node2&#45;&gt;Node7 -->
<g id="edge7" class="edge">
<title>Node2&#45;&gt;Node7</title>
<path fill="none" stroke="midnightblue" d="M294.16,-168.37C294.48,-150.62 295.22,-109.67 295.66,-85.6"/>
<polygon fill="midnightblue" stroke="midnightblue" points="299.16,-85.65 295.84,-75.59 292.16,-85.53 299.16,-85.65"/>
</g>
<!-- Node2&#45;&gt;Node8 -->
<g id="edge9" class="edge">
<title>Node2&#45;&gt;Node8</title>
<path fill="none" stroke="midnightblue" d="M300.94,-168.08C306.93,-160.38 315.75,-149.03 323.05,-139.65"/>
<polygon fill="midnightblue" stroke="midnightblue" points="325.82,-141.79 329.19,-131.75 320.29,-137.5 325.82,-141.79"/>
</g>
<!-- Node2&#45;&gt;Node9 -->
<g id="edge10" class="edge">
<title>Node2&#45;&gt;Node9</title>
<path fill="none" stroke="midnightblue" d="M312.54,-168.44C331.62,-159.64 361.57,-145.81 383.44,-135.72"/>
<polygon fill="midnightblue" stroke="midnightblue" points="384.93,-138.88 392.55,-131.52 382,-132.53 384.93,-138.88"/>
</g>
<!-- Node3&#45;&gt;Node4 -->
<g id="edge3" class="edge">
<title>Node3&#45;&gt;Node4</title>
<path fill="none" stroke="midnightblue" d="M111.58,-112.08C104.15,-104.22 93.15,-92.57 84.19,-83.08"/>
<polygon fill="midnightblue" stroke="midnightblue" points="86.68,-80.62 77.26,-75.75 81.59,-85.42 86.68,-80.62"/>
</g>
<!-- Node3&#45;&gt;Node5 -->
<g id="edge6" class="edge">
<title>Node3&#45;&gt;Node5</title>
<path fill="none" stroke="midnightblue" d="M125.21,-112.39C130.66,-103.35 139.48,-88.7 147,-76 156.45,-60.05 167.09,-41.82 174.71,-28.73"/>
<polygon fill="midnightblue" stroke="midnightblue" points="177.87,-30.25 179.87,-19.85 171.82,-26.74 177.87,-30.25"/>
</g>
<!-- Node4&#45;&gt;Node5 -->
<g id="edge4" class="edge">
<title>Node4&#45;&gt;Node5</title>
<path fill="none" stroke="midnightblue" d="M87.38,-56.44C106.22,-47.68 135.73,-33.94 157.38,-23.86"/>
<polygon fill="midnightblue" stroke="midnightblue" points="159.12,-26.91 166.71,-19.52 156.16,-20.56 159.12,-26.91"/>
</g>
<!-- Node6 -->
<g id="node6" class="node">
<title>Node6</title>
<g id="a_node6"><a xlink:title=" ">
<polygon fill="white" stroke="#bfbfbf" points="22.5,-0.5 22.5,-19.5 115.5,-19.5 115.5,-0.5 22.5,-0.5"/>
<text text-anchor="middle" x="69" y="-7.5" font-family="Helvetica,sans-Serif" font-size="10.00">unordered_map</text>
</a>
</g>
</g>
<!-- Node4&#45;&gt;Node6 -->
<g id="edge5" class="edge">
<title>Node4&#45;&gt;Node6</title>
<path fill="none" stroke="midnightblue" d="M69,-56.08C69,-49.01 69,-38.86 69,-29.99"/>
<polygon fill="midnightblue" stroke="midnightblue" points="72.5,-29.75 69,-19.75 65.5,-29.75 72.5,-29.75"/>
</g>
<!-- Node7&#45;&gt;Node5 -->
<g id="edge8" class="edge">
<title>Node7&#45;&gt;Node5</title>
<path fill="none" stroke="midnightblue" d="M278.17,-56.32C260.28,-47.62 232.52,-34.12 211.95,-24.11"/>
<polygon fill="midnightblue" stroke="midnightblue" points="213.31,-20.88 202.79,-19.65 210.25,-27.18 213.31,-20.88"/>
</g>
<!-- Node10&#45;&gt;Node11 -->
<g id="edge12" class="edge">
<title>Node10&#45;&gt;Node11</title>
<path fill="none" stroke="midnightblue" d="M526.68,-168.32C518.11,-160.34 505.19,-148.31 494.81,-138.65"/>
<polygon fill="midnightblue" stroke="midnightblue" points="497.19,-136.09 487.49,-131.83 492.42,-141.21 497.19,-136.09"/>
</g>
<!-- Node12 -->
<g id="node12" class="node">
<title>Node12</title>
<g id="a_node12"><a xlink:title=" ">
<polygon fill="white" stroke="#bfbfbf" points="598,-112.5 598,-131.5 648,-131.5 648,-112.5 598,-112.5"/>
<text text-anchor="middle" x="623" y="-119.5" font-family="Helvetica,sans-Serif" font-size="10.00">cstring</text>
</a>
</g>
</g>
<!-- Node10&#45;&gt;Node12 -->
<g id="edge13" class="edge">
<title>Node10&#45;&gt;Node12</title>
<path fill="none" stroke="midnightblue" d="M549.98,-168.32C563.55,-159.9 584.38,-146.97 600.32,-137.07"/>
<polygon fill="midnightblue" stroke="midnightblue" points="602.41,-139.9 609.06,-131.65 598.71,-133.95 602.41,-139.9"/>
</g>
<!-- Node13 -->
<g id="node13" class="node">
<title>Node13</title>
<g id="a_node13"><a xlink:title=" ">
<polygon fill="white" stroke="#bfbfbf" points="510.5,-112.5 510.5,-131.5 579.5,-131.5 579.5,-112.5 510.5,-112.5"/>
<text text-anchor="middle" x="545" y="-119.5" font-family="Helvetica,sans-Serif" font-size="10.00">type_traits</text>
</a>
</g>
</g>
<!-- Node10&#45;&gt;Node13 -->
<g id="edge14" class="edge">
<title>Node10&#45;&gt;Node13</title>
<path fill="none" stroke="midnightblue" d="M537.49,-168.08C538.68,-160.93 540.39,-150.64 541.88,-141.69"/>
<polygon fill="midnightblue" stroke="midnightblue" points="545.35,-142.19 543.54,-131.75 538.45,-141.04 545.35,-142.19"/>
</g>
</g>
</svg>
        <g id="navigator" transform="translate(0 0)" fill="#404254">
                <rect fill="#f2f5e9" fill-opacity="0.5" stroke="#606060" stroke-width=".5" x="0" y="0" width="60" height="60"/>
                <use id="zoomplus" xlink:href="#zoomPlus" x="17" y="9" onmousedown="handleZoom(evt,'in')"/>
                <use id="zoomminus" xlink:href="#zoomMin" x="42" y="9" onmousedown="handleZoom(evt,'out')"/>
                <use id="reset" xlink:href="#resetDef" x="30" y="36" onmousedown="handleReset()"/>
                <g id="arrowUp" xlink:href="#dirArrow" transform="translate(30 24)" onmousedown="handlePan(0,-1)">
                  <use xlink:href="#rim" fill="#404040">
                        <set attributeName="fill" to="#808080" begin="arrowUp.mouseover" end="arrowUp.mouseout"/>
                  </use>
                  <path fill="none" stroke="white" stroke-width="1.5" d="M0,-3.0v7 M-2.5,-0.5L0,-3.0L2.5,-0.5"/>
                </g>
                <g id="arrowRight" xlink:href="#dirArrow" transform="rotate(90) translate(36 -43)" onmousedown="handlePan(1,0)">
                  <use xlink:href="#rim" fill="#404040">
                        <set attributeName="fill" to="#808080" begin="arrowRight.mouseover" end="arrowRight.mouseout"/>
                  </use>
                  <path fill="none" stroke="white" stroke-width="1.5" d="M0,-3.0v7 M-2.5,-0.5L0,-3.0L2.5,-0.5"/>
                </g>
                <g id="arrowDown" xlink:href="#dirArrow" transform="rotate(180) translate(-30 -48)" onmousedown="handlePan(0,1)">
                  <use xlink:href="#rim" fill="#404040">
                        <set attributeName="fill" to="#808080" begin="arrowDown.mouseover" end="arrowDown.mouseout"/>
                  </use>
                  <path fill="none" stroke="white" stroke-width="1.5" d="M0,-3.0v7 M-2.5,-0.5L0,-3.0L2.5,-0.5"/>
                </g>
                <g id="arrowLeft" xlink:href="#dirArrow" transform="rotate(270) translate(-36 17)" onmousedown="handlePan(-1,0)">
                  <use xlink:href="#rim" fill="#404040">
                        <set attributeName="fill" to="#808080" begin="arrowLeft.mouseover" end="arrowLeft.mouseout"/>
                  </use>
                  <path fill="none" stroke="white" stroke-width="1.5" d="M0,-3.0v7 M-2.5,-0.5L0,-3.0L2.5,-0.5"/>
                </g>
        </g>
        <svg viewBox="0 0 15 15" width="100%" height="30px" preserveAspectRatio="xMaxYMin meet">
         <g id="arrow_out" transform="scale(0.3 0.3)">
          <a xlink:href="ads1115_2src_2ads1115_8cpp__incl_org.svg" target="_base">
           <rect id="button" ry="5" rx="5" y="6" x="6" height="38" width="38"
                fill="#f2f5e9" fill-opacity="0.5" stroke="#606060" stroke-width="1.0"/>
           <path id="arrow"
             d="M 11.500037,31.436501 C 11.940474,20.09759 22.043105,11.32322 32.158766,21.979434 L 37.068811,17.246167 C 37.068811,17.246167 37.088388,32 37.088388,32 L 22.160133,31.978069 C 22.160133,31.978069 26.997745,27.140456 26.997745,27.140456 C 18.528582,18.264221 13.291696,25.230495 11.500037,31.436501 z"
             style="fill:#404040;"/>
          </a>
         </g>
        </svg>
</svg>
