<?xml version="1.0" encoding="UTF-8" standalone="no"?>
<!DOCTYPE svg PUBLIC "-//W3C//DTD SVG 1.1//EN"
 "http://www.w3.org/Graphics/SVG/1.1/DTD/svg11.dtd">
<!-- Generated by graphviz version 2.43.0 (0)
 -->
<!-- Title: ads1115/include/ads1115/bit.hpp Pages: 1 -->
<svg width="310pt" height="95pt"
 viewBox="0.00 0.00 310.00 95.00" xmlns="http://www.w3.org/2000/svg" xmlns:xlink="http://www.w3.org/1999/xlink">
<g id="graph0" class="graph" transform="scale(1 1) rotate(0) translate(4 91)">
<title>ads1115/include/ads1115/bit.hpp</title>
<polygon fill="white" stroke="transparent" points="-4,4 -4,-91 306,-91 306,4 -4,4"/>
<!-- Node1 -->
<g id="node1" class="node">
<title>Node1</title>
<g id="a_node1"><a xlink:title=" ">
<polygon fill="#bfbfbf" stroke="black" points="80,-56.5 80,-86.5 220,-86.5 220,-56.5 80,-56.5"/>
<text text-anchor="start" x="88" y="-74.5" font-family="Helvetica,sans-Serif" font-size="10.00">ads1115/include/ads1115</text>
<text text-anchor="middle" x="150" y="-63.5" font-family="Helvetica,sans-Serif" font-size="10.00">/bit.hpp</text>
</a>
</g>
</g>
<!-- Node2 -->
<g id="node2" class="node">
<title>Node2</title>
<g id="a_node2"><a xlink:href="ads1115_2src_2ads1115_8cpp.html" target="_top" xlink:title=" ">
<polygon fill="white" stroke="black" points="0,-0.5 0,-19.5 140,-19.5 140,-0.5 0,-0.5"/>
<text text-anchor="middle" x="70" y="-7.5" font-family="Helvetica,sans-Serif" font-size="10.00">ads1115/src/ads1115.cpp</text>
</a>
</g>
</g>
<!-- Node1&#45;&gt;Node2 -->
<g id="edge1" class="edge">
<title>Node1&#45;&gt;Node2</title>
<path fill="none" stroke="midnightblue" d="M122.69,-50.19C108.68,-39.77 92.36,-27.63 81.64,-19.66"/>
<polygon fill="midnightblue" stroke="midnightblue" points="120.93,-53.24 131.04,-56.4 125.11,-47.62 120.93,-53.24"/>
</g>
<!-- Node3 -->
<g id="node3" class="node">
<title>Node3</title>
<g id="a_node3"><a xlink:href="ads1115_2src_2threshold_8cpp.html" target="_top" xlink:title=" ">
<polygon fill="white" stroke="black" points="158,-0.5 158,-19.5 302,-19.5 302,-0.5 158,-0.5"/>
<text text-anchor="middle" x="230" y="-7.5" font-family="Helvetica,sans-Serif" font-size="10.00">ads1115/src/threshold.cpp</text>
</a>
</g>
</g>
<!-- Node1&#45;&gt;Node3 -->
<g id="edge2" class="edge">
<title>Node1&#45;&gt;Node3</title>
<path fill="none" stroke="midnightblue" d="M177.31,-50.19C191.32,-39.77 207.64,-27.63 218.36,-19.66"/>
<polygon fill="midnightblue" stroke="midnightblue" points="174.89,-47.62 168.96,-56.4 179.07,-53.24 174.89,-47.62"/>
</g>
</g>
</svg>
