<?xml version="1.0" encoding="UTF-8" standalone="no"?>
<!DOCTYPE svg PUBLIC "-//W3C//DTD SVG 1.1//EN"
 "http://www.w3.org/Graphics/SVG/1.1/DTD/svg11.dtd">
<!-- Generated by graphviz version 2.43.0 (0)
 -->
<!-- Title: ADS1115::ADS1115 Pages: 1 -->
<svg width="240pt" height="95pt"
 viewBox="0.00 0.00 239.50 95.00" xmlns="http://www.w3.org/2000/svg" xmlns:xlink="http://www.w3.org/1999/xlink">
<g id="graph0" class="graph" transform="scale(1 1) rotate(0) translate(4 91)">
<title>ADS1115::ADS1115</title>
<polygon fill="white" stroke="transparent" points="-4,4 -4,-91 235.5,-91 235.5,4 -4,4"/>
<!-- Node1 -->
<g id="node1" class="node">
<title>Node1</title>
<g id="a_node1"><a xlink:title=" ">
<polygon fill="#bfbfbf" stroke="black" points="64,-0.5 64,-19.5 175,-19.5 175,-0.5 64,-0.5"/>
<text text-anchor="middle" x="119.5" y="-7.5" font-family="Helvetica,sans-Serif" font-size="10.00">ADS1115::ADS1115</text>
</a>
</g>
</g>
<!-- Node2 -->
<g id="node2" class="node">
<title>Node2</title>
<g id="a_node2"><a xlink:href="classADS1115_1_1Threshold.html" target="_top" xlink:title=" ">
<polygon fill="white" stroke="black" points="0,-67.5 0,-86.5 115,-86.5 115,-67.5 0,-67.5"/>
<text text-anchor="middle" x="57.5" y="-74.5" font-family="Helvetica,sans-Serif" font-size="10.00">ADS1115::Threshold</text>
</a>
</g>
</g>
<!-- Node2&#45;&gt;Node1 -->
<g id="edge1" class="edge">
<title>Node2&#45;&gt;Node1</title>
<path fill="none" stroke="#9a32cd" stroke-dasharray="5,2" d="M72.76,-60C84.92,-47.25 101.48,-29.89 111.27,-19.63"/>
<polygon fill="#9a32cd" stroke="#9a32cd" points="70.23,-57.58 65.86,-67.23 75.3,-62.41 70.23,-57.58"/>
<text text-anchor="middle" x="124.5" y="-41" font-family="Helvetica,sans-Serif" font-size="10.00"> m_threshold</text>
</g>
<!-- Node3 -->
<g id="node3" class="node">
<title>Node3</title>
<g id="a_node3"><a xlink:href="structADS1115_1_1Config.html" target="_top" xlink:title=" ">
<polygon fill="white" stroke="black" points="133.5,-67.5 133.5,-86.5 231.5,-86.5 231.5,-67.5 133.5,-67.5"/>
<text text-anchor="middle" x="182.5" y="-74.5" font-family="Helvetica,sans-Serif" font-size="10.00">ADS1115::Config</text>
</a>
</g>
</g>
<!-- Node3&#45;&gt;Node1 -->
<g id="edge2" class="edge">
<title>Node3&#45;&gt;Node1</title>
<path fill="none" stroke="#9a32cd" stroke-dasharray="5,2" d="M174.42,-58.23C170.79,-51.42 166.06,-43.88 160.5,-38 153.6,-30.69 144.35,-24.38 136.38,-19.7"/>
<polygon fill="#9a32cd" stroke="#9a32cd" points="171.38,-59.98 178.93,-67.41 177.66,-56.89 171.38,-59.98"/>
<text text-anchor="middle" x="192.5" y="-41" font-family="Helvetica,sans-Serif" font-size="10.00"> m_config</text>
</g>
</g>
</svg>
