<?xml version="1.0" encoding="UTF-8" standalone="no"?>
<!DOCTYPE svg PUBLIC "-//W3C//DTD SVG 1.1//EN"
 "http://www.w3.org/Graphics/SVG/1.1/DTD/svg11.dtd">
<!-- Generated by graphviz version 2.43.0 (0)
 -->
<!-- Title: ADS1115::ADS1115::write_word Pages: 1 -->
<svg width="553pt" height="28pt"
 viewBox="0.00 0.00 553.00 28.00" xmlns="http://www.w3.org/2000/svg" xmlns:xlink="http://www.w3.org/1999/xlink">
<g id="graph0" class="graph" transform="scale(1 1) rotate(0) translate(4 24)">
<title>ADS1115::ADS1115::write_word</title>
<polygon fill="white" stroke="transparent" points="-4,4 -4,-24 549,-24 549,4 -4,4"/>
<!-- Node1 -->
<g id="node1" class="node">
<title>Node1</title>
<g id="a_node1"><a xlink:title=" ">
<polygon fill="#bfbfbf" stroke="black" points="0,-0.5 0,-19.5 171,-19.5 171,-0.5 0,-0.5"/>
<text text-anchor="middle" x="85.5" y="-7.5" font-family="Helvetica,sans-Serif" font-size="10.00">ADS1115::ADS1115::write_word</text>
</a>
</g>
</g>
<!-- Node2 -->
<g id="node2" class="node">
<title>Node2</title>
<g id="a_node2"><a xlink:href="namespaceADS1115_1_1util.html#a71a0e4fea781fc67e2fd0a1bba68bd47" target="_top" xlink:title=" ">
<polygon fill="white" stroke="black" points="207,-0.5 207,-19.5 368,-19.5 368,-0.5 207,-0.5"/>
<text text-anchor="middle" x="287.5" y="-7.5" font-family="Helvetica,sans-Serif" font-size="10.00">ADS1115::util::to_device_repr</text>
</a>
</g>
</g>
<!-- Node1&#45;&gt;Node2 -->
<g id="edge1" class="edge">
<title>Node1&#45;&gt;Node2</title>
<path fill="none" stroke="midnightblue" d="M171.03,-10C179.44,-10 188,-10 196.47,-10"/>
<polygon fill="midnightblue" stroke="midnightblue" points="196.73,-13.5 206.73,-10 196.73,-6.5 196.73,-13.5"/>
</g>
<!-- Node3 -->
<g id="node3" class="node">
<title>Node3</title>
<g id="a_node3"><a xlink:href="namespaceADS1115_1_1util.html#a65cdbc0fd822dd5fdcdb137cb574d2f2" target="_top" xlink:title=" ">
<polygon fill="white" stroke="black" points="404,-0.5 404,-19.5 545,-19.5 545,-0.5 404,-0.5"/>
<text text-anchor="middle" x="474.5" y="-7.5" font-family="Helvetica,sans-Serif" font-size="10.00">ADS1115::util::byte_swap</text>
</a>
</g>
</g>
<!-- Node2&#45;&gt;Node3 -->
<g id="edge2" class="edge">
<title>Node2&#45;&gt;Node3</title>
<path fill="none" stroke="midnightblue" d="M368.03,-10C376.52,-10 385.17,-10 393.66,-10"/>
<polygon fill="midnightblue" stroke="midnightblue" points="393.94,-13.5 403.94,-10 393.94,-6.5 393.94,-13.5"/>
</g>
</g>
</svg>
