<?xml version="1.0" encoding="UTF-8" standalone="no"?>
<!DOCTYPE svg PUBLIC "-//W3C//DTD SVG 1.1//EN"
 "http://www.w3.org/Graphics/SVG/1.1/DTD/svg11.dtd">
<!-- Generated by graphviz version 2.43.0 (0)
 -->
<!-- Title: ADS1115::Threshold::set Pages: 1 -->
<svg width="295pt" height="78pt"
 viewBox="0.00 0.00 295.00 77.50" xmlns="http://www.w3.org/2000/svg" xmlns:xlink="http://www.w3.org/1999/xlink">
<g id="graph0" class="graph" transform="scale(1 1) rotate(0) translate(4 73.5)">
<title>ADS1115::Threshold::set</title>
<polygon fill="white" stroke="transparent" points="-4,4 -4,-73.5 291,-73.5 291,4 -4,4"/>
<!-- Node1 -->
<g id="node1" class="node">
<title>Node1</title>
<g id="a_node1"><a xlink:title=" ">
<polygon fill="#bfbfbf" stroke="black" points="151,-28 151,-47 287,-47 287,-28 151,-28"/>
<text text-anchor="middle" x="219" y="-35" font-family="Helvetica,sans-Serif" font-size="10.00">ADS1115::Threshold::set</text>
</a>
</g>
</g>
<!-- Node2 -->
<g id="node2" class="node">
<title>Node2</title>
<g id="a_node2"><a xlink:href="tests_2src_2threshold_8cpp.html#a57800e12d4a19694f5b31656319455c3" target="_top" xlink:title=" ">
<polygon fill="white" stroke="black" points="37,-50 37,-69 78,-69 78,-50 37,-50"/>
<text text-anchor="middle" x="57.5" y="-57" font-family="Helvetica,sans-Serif" font-size="10.00">TEST</text>
</a>
</g>
</g>
<!-- Node1&#45;&gt;Node2 -->
<g id="edge1" class="edge">
<title>Node1&#45;&gt;Node2</title>
<path fill="none" stroke="midnightblue" d="M140.61,-48.17C117.52,-51.36 94.17,-54.58 78.3,-56.77"/>
<polygon fill="midnightblue" stroke="midnightblue" points="141.39,-51.6 150.82,-46.77 140.44,-44.67 141.39,-51.6"/>
</g>
<!-- Node3 -->
<g id="node3" class="node">
<title>Node3</title>
<g id="a_node3"><a xlink:href="classADS1115_1_1Threshold.html#a9c28c87f04fcbdbe157f6447e3524470" target="_top" xlink:title=" ">
<polygon fill="white" stroke="black" points="0,-0.5 0,-30.5 115,-30.5 115,-0.5 0,-0.5"/>
<text text-anchor="start" x="8" y="-18.5" font-family="Helvetica,sans-Serif" font-size="10.00">ADS1115::Threshold</text>
<text text-anchor="middle" x="57.5" y="-7.5" font-family="Helvetica,sans-Serif" font-size="10.00">::Threshold</text>
</a>
</g>
</g>
<!-- Node1&#45;&gt;Node3 -->
<g id="edge2" class="edge">
<title>Node1&#45;&gt;Node3</title>
<path fill="none" stroke="midnightblue" d="M140.7,-26.84C132.04,-25.64 123.34,-24.44 115.01,-23.29"/>
<polygon fill="midnightblue" stroke="midnightblue" points="140.44,-30.33 150.82,-28.23 141.39,-23.4 140.44,-30.33"/>
</g>
</g>
</svg>
