<?xml version="1.0" encoding="UTF-8" standalone="no"?>
<!DOCTYPE svg PUBLIC "-//W3C//DTD SVG 1.1//EN"
 "http://www.w3.org/Graphics/SVG/1.1/DTD/svg11.dtd">
<!-- Generated by graphviz version 2.43.0 (0)
 -->
<!-- Title: ADS1115::ADS1115::read_word Pages: 1 -->
<svg width="698pt" height="39pt"
 viewBox="0.00 0.00 698.00 39.00" xmlns="http://www.w3.org/2000/svg" xmlns:xlink="http://www.w3.org/1999/xlink">
<g id="graph0" class="graph" transform="scale(1 1) rotate(0) translate(4 35)">
<title>ADS1115::ADS1115::read_word</title>
<polygon fill="white" stroke="transparent" points="-4,4 -4,-35 694,-35 694,4 -4,4"/>
<!-- Node1 -->
<g id="node1" class="node">
<title>Node1</title>
<g id="a_node1"><a xlink:title=" ">
<polygon fill="#bfbfbf" stroke="black" points="0,-6 0,-25 168,-25 168,-6 0,-6"/>
<text text-anchor="middle" x="84" y="-13" font-family="Helvetica,sans-Serif" font-size="10.00">ADS1115::ADS1115::read_word</text>
</a>
</g>
</g>
<!-- Node2 -->
<g id="node2" class="node">
<title>Node2</title>
<g id="a_node2"><a xlink:href="namespaceADS1115_1_1util.html#a1e8045332952579d5d7cbfa65dadef4e" target="_top" xlink:title=" ">
<polygon fill="white" stroke="black" points="204,-0.5 204,-30.5 316,-30.5 316,-0.5 204,-0.5"/>
<text text-anchor="start" x="212" y="-18.5" font-family="Helvetica,sans-Serif" font-size="10.00">ADS1115::util::from</text>
<text text-anchor="middle" x="260" y="-7.5" font-family="Helvetica,sans-Serif" font-size="10.00">_device_repr</text>
</a>
</g>
</g>
<!-- Node1&#45;&gt;Node2 -->
<g id="edge1" class="edge">
<title>Node1&#45;&gt;Node2</title>
<path fill="none" stroke="midnightblue" d="M168.18,-15.5C176.75,-15.5 185.37,-15.5 193.71,-15.5"/>
<polygon fill="midnightblue" stroke="midnightblue" points="193.72,-19 203.72,-15.5 193.72,-12 193.72,-19"/>
</g>
<!-- Node3 -->
<g id="node3" class="node">
<title>Node3</title>
<g id="a_node3"><a xlink:href="namespaceADS1115_1_1util.html#a71a0e4fea781fc67e2fd0a1bba68bd47" target="_top" xlink:title=" ">
<polygon fill="white" stroke="black" points="352,-6 352,-25 513,-25 513,-6 352,-6"/>
<text text-anchor="middle" x="432.5" y="-13" font-family="Helvetica,sans-Serif" font-size="10.00">ADS1115::util::to_device_repr</text>
</a>
</g>
</g>
<!-- Node2&#45;&gt;Node3 -->
<g id="edge2" class="edge">
<title>Node2&#45;&gt;Node3</title>
<path fill="none" stroke="midnightblue" d="M316.36,-15.5C324.53,-15.5 333.13,-15.5 341.79,-15.5"/>
<polygon fill="midnightblue" stroke="midnightblue" points="341.96,-19 351.96,-15.5 341.96,-12 341.96,-19"/>
</g>
<!-- Node4 -->
<g id="node4" class="node">
<title>Node4</title>
<g id="a_node4"><a xlink:href="namespaceADS1115_1_1util.html#a65cdbc0fd822dd5fdcdb137cb574d2f2" target="_top" xlink:title=" ">
<polygon fill="white" stroke="black" points="549,-6 549,-25 690,-25 690,-6 549,-6"/>
<text text-anchor="middle" x="619.5" y="-13" font-family="Helvetica,sans-Serif" font-size="10.00">ADS1115::util::byte_swap</text>
</a>
</g>
</g>
<!-- Node3&#45;&gt;Node4 -->
<g id="edge3" class="edge">
<title>Node3&#45;&gt;Node4</title>
<path fill="none" stroke="midnightblue" d="M513.03,-15.5C521.52,-15.5 530.17,-15.5 538.66,-15.5"/>
<polygon fill="midnightblue" stroke="midnightblue" points="538.94,-19 548.94,-15.5 538.94,-12 538.94,-19"/>
</g>
</g>
</svg>
