<?xml version="1.0" encoding="UTF-8" standalone="no"?>
<!DOCTYPE svg PUBLIC "-//W3C//DTD SVG 1.1//EN"
 "http://www.w3.org/Graphics/SVG/1.1/DTD/svg11.dtd">
<!-- Generated by graphviz version 2.43.0 (0)
 -->
<!-- Title: ADS1115::Threshold::getLow Pages: 1 -->
<svg width="310pt" height="78pt"
 viewBox="0.00 0.00 310.00 77.50" xmlns="http://www.w3.org/2000/svg" xmlns:xlink="http://www.w3.org/1999/xlink">
<g id="graph0" class="graph" transform="scale(1 1) rotate(0) translate(4 73.5)">
<title>ADS1115::Threshold::getLow</title>
<polygon fill="white" stroke="transparent" points="-4,4 -4,-73.5 306,-73.5 306,4 -4,4"/>
<!-- Node1 -->
<g id="node1" class="node">
<title>Node1</title>
<g id="a_node1"><a xlink:title=" ">
<polygon fill="#bfbfbf" stroke="black" points="187,-17 187,-47 302,-47 302,-17 187,-17"/>
<text text-anchor="start" x="195" y="-35" font-family="Helvetica,sans-Serif" font-size="10.00">ADS1115::Threshold</text>
<text text-anchor="middle" x="244.5" y="-24" font-family="Helvetica,sans-Serif" font-size="10.00">::getLow</text>
</a>
</g>
</g>
<!-- Node2 -->
<g id="node2" class="node">
<title>Node2</title>
<g id="a_node2"><a xlink:href="classADS1115_1_1ADS1115.html#ac4aa65acbf5531c4028d5d4ab7f7eb0a" target="_top" xlink:title=" ">
<polygon fill="white" stroke="black" points="0,-39 0,-69 151,-69 151,-39 0,-39"/>
<text text-anchor="start" x="8" y="-57" font-family="Helvetica,sans-Serif" font-size="10.00">ADS1115::ADS1115::setReg</text>
<text text-anchor="middle" x="75.5" y="-46" font-family="Helvetica,sans-Serif" font-size="10.00">Threshold</text>
</a>
</g>
</g>
<!-- Node1&#45;&gt;Node2 -->
<g id="edge1" class="edge">
<title>Node1&#45;&gt;Node2</title>
<path fill="none" stroke="midnightblue" d="M176.78,-40.79C168.32,-41.9 159.62,-43.05 151.04,-44.18"/>
<polygon fill="midnightblue" stroke="midnightblue" points="177.5,-44.22 186.96,-39.45 176.59,-37.28 177.5,-44.22"/>
</g>
<!-- Node3 -->
<g id="node3" class="node">
<title>Node3</title>
<g id="a_node3"><a xlink:href="tests_2src_2ads1115_8cpp.html#a13345f1b8e90a175e850b38446d3822a" target="_top" xlink:title=" ">
<polygon fill="white" stroke="black" points="55,-0.5 55,-19.5 96,-19.5 96,-0.5 55,-0.5"/>
<text text-anchor="middle" x="75.5" y="-7.5" font-family="Helvetica,sans-Serif" font-size="10.00">TEST</text>
</a>
</g>
</g>
<!-- Node1&#45;&gt;Node3 -->
<g id="edge2" class="edge">
<title>Node1&#45;&gt;Node3</title>
<path fill="none" stroke="midnightblue" d="M176.86,-23.22C147.88,-19.4 116.08,-15.21 96.21,-12.6"/>
<polygon fill="midnightblue" stroke="midnightblue" points="176.59,-26.72 186.96,-24.55 177.5,-19.78 176.59,-26.72"/>
</g>
</g>
</svg>
