<?xml version="1.0" encoding="UTF-8" standalone="no"?>
<!DOCTYPE svg PUBLIC "-//W3C//DTD SVG 1.1//EN"
 "http://www.w3.org/Graphics/SVG/1.1/DTD/svg11.dtd">
<!-- Generated by graphviz version 2.43.0 (0)
 -->
<!-- Title: ads1115/include/ads1115/config.hpp Pages: 1 -->
<svg width="336pt" height="162pt"
 viewBox="0.00 0.00 335.50 162.00" xmlns="http://www.w3.org/2000/svg" xmlns:xlink="http://www.w3.org/1999/xlink">
<g id="graph0" class="graph" transform="scale(1 1) rotate(0) translate(4 158)">
<title>ads1115/include/ads1115/config.hpp</title>
<polygon fill="white" stroke="transparent" points="-4,4 -4,-158 331.5,-158 331.5,4 -4,4"/>
<!-- Node1 -->
<g id="node1" class="node">
<title>Node1</title>
<g id="a_node1"><a xlink:title=" ">
<polygon fill="#bfbfbf" stroke="black" points="91.5,-123.5 91.5,-153.5 231.5,-153.5 231.5,-123.5 91.5,-123.5"/>
<text text-anchor="start" x="99.5" y="-141.5" font-family="Helvetica,sans-Serif" font-size="10.00">ads1115/include/ads1115</text>
<text text-anchor="middle" x="161.5" y="-130.5" font-family="Helvetica,sans-Serif" font-size="10.00">/config.hpp</text>
</a>
</g>
</g>
<!-- Node2 -->
<g id="node2" class="node">
<title>Node2</title>
<g id="a_node2"><a xlink:href="ads1115__export_8h.html" target="_top" xlink:title=" ">
<polygon fill="white" stroke="black" points="0,-56.5 0,-86.5 133,-86.5 133,-56.5 0,-56.5"/>
<text text-anchor="start" x="8" y="-74.5" font-family="Helvetica,sans-Serif" font-size="10.00">ads1115/detail/ads1115</text>
<text text-anchor="middle" x="66.5" y="-63.5" font-family="Helvetica,sans-Serif" font-size="10.00">_export.h</text>
</a>
</g>
</g>
<!-- Node1&#45;&gt;Node2 -->
<g id="edge1" class="edge">
<title>Node1&#45;&gt;Node2</title>
<path fill="none" stroke="midnightblue" d="M140.89,-123.4C127.57,-114.28 110.04,-102.29 95.34,-92.24"/>
<polygon fill="midnightblue" stroke="midnightblue" points="97.3,-89.33 87.07,-86.58 93.35,-95.11 97.3,-89.33"/>
</g>
<!-- Node3 -->
<g id="node3" class="node">
<title>Node3</title>
<g id="a_node3"><a xlink:href="parameters_8hpp.html" target="_top" xlink:title=" ">
<polygon fill="white" stroke="black" points="189.5,-62 189.5,-81 327.5,-81 327.5,-62 189.5,-62"/>
<text text-anchor="middle" x="258.5" y="-69" font-family="Helvetica,sans-Serif" font-size="10.00">ads1115/parameters.hpp</text>
</a>
</g>
</g>
<!-- Node1&#45;&gt;Node3 -->
<g id="edge2" class="edge">
<title>Node1&#45;&gt;Node3</title>
<path fill="none" stroke="midnightblue" d="M182.55,-123.4C198.81,-112.5 221.22,-97.48 237.48,-86.58"/>
<polygon fill="midnightblue" stroke="midnightblue" points="239.45,-89.48 245.8,-81.01 235.55,-83.67 239.45,-89.48"/>
</g>
<!-- Node4 -->
<g id="node4" class="node">
<title>Node4</title>
<g id="a_node4"><a xlink:title=" ">
<polygon fill="white" stroke="#bfbfbf" points="140.5,-0.5 140.5,-19.5 190.5,-19.5 190.5,-0.5 140.5,-0.5"/>
<text text-anchor="middle" x="165.5" y="-7.5" font-family="Helvetica,sans-Serif" font-size="10.00">cstdint</text>
</a>
</g>
</g>
<!-- Node1&#45;&gt;Node4 -->
<g id="edge5" class="edge">
<title>Node1&#45;&gt;Node4</title>
<path fill="none" stroke="midnightblue" d="M161.94,-123.48C162.66,-100.72 164.09,-55.7 164.9,-30.06"/>
<polygon fill="midnightblue" stroke="midnightblue" points="168.4,-29.89 165.22,-19.79 161.41,-29.67 168.4,-29.89"/>
</g>
<!-- Node3&#45;&gt;Node4 -->
<g id="edge3" class="edge">
<title>Node3&#45;&gt;Node4</title>
<path fill="none" stroke="midnightblue" d="M245.18,-61.98C230.12,-52.34 205.38,-36.52 187.46,-25.05"/>
<polygon fill="midnightblue" stroke="midnightblue" points="189.11,-21.95 178.8,-19.51 185.34,-27.85 189.11,-21.95"/>
</g>
<!-- Node5 -->
<g id="node5" class="node">
<title>Node5</title>
<g id="a_node5"><a xlink:title=" ">
<polygon fill="white" stroke="#bfbfbf" points="212,-0.5 212,-19.5 305,-19.5 305,-0.5 212,-0.5"/>
<text text-anchor="middle" x="258.5" y="-7.5" font-family="Helvetica,sans-Serif" font-size="10.00">unordered_map</text>
</a>
</g>
</g>
<!-- Node3&#45;&gt;Node5 -->
<g id="edge4" class="edge">
<title>Node3&#45;&gt;Node5</title>
<path fill="none" stroke="midnightblue" d="M258.5,-61.98C258.5,-53.58 258.5,-40.48 258.5,-29.66"/>
<polygon fill="midnightblue" stroke="midnightblue" points="262,-29.51 258.5,-19.51 255,-29.51 262,-29.51"/>
</g>
</g>
</svg>
