<?xml version="1.0" encoding="UTF-8" standalone="no"?>
<!DOCTYPE svg PUBLIC "-//W3C//DTD SVG 1.1//EN"
 "http://www.w3.org/Graphics/SVG/1.1/DTD/svg11.dtd">
<!-- Generated by graphviz version 2.43.0 (0)
 -->
<!-- Title: ads1115/include/ads1115/config.hpp Pages: 1 -->
<svg width="546pt" height="162pt"
 viewBox="0.00 0.00 546.00 162.00" xmlns="http://www.w3.org/2000/svg" xmlns:xlink="http://www.w3.org/1999/xlink">
<g id="graph0" class="graph" transform="scale(1 1) rotate(0) translate(4 158)">
<title>ads1115/include/ads1115/config.hpp</title>
<polygon fill="white" stroke="transparent" points="-4,4 -4,-158 542,-158 542,4 -4,4"/>
<!-- Node1 -->
<g id="node1" class="node">
<title>Node1</title>
<g id="a_node1"><a xlink:title=" ">
<polygon fill="#bfbfbf" stroke="black" points="184,-123.5 184,-153.5 324,-153.5 324,-123.5 184,-123.5"/>
<text text-anchor="start" x="192" y="-141.5" font-family="Helvetica,sans-Serif" font-size="10.00">ads1115/include/ads1115</text>
<text text-anchor="middle" x="254" y="-130.5" font-family="Helvetica,sans-Serif" font-size="10.00">/config.hpp</text>
</a>
</g>
</g>
<!-- Node2 -->
<g id="node2" class="node">
<title>Node2</title>
<g id="a_node2"><a xlink:href="ads1115_8hpp.html" target="_top" xlink:title=" ">
<polygon fill="white" stroke="black" points="86,-56.5 86,-86.5 226,-86.5 226,-56.5 86,-56.5"/>
<text text-anchor="start" x="94" y="-74.5" font-family="Helvetica,sans-Serif" font-size="10.00">ads1115/include/ads1115</text>
<text text-anchor="middle" x="156" y="-63.5" font-family="Helvetica,sans-Serif" font-size="10.00">/ads1115.hpp</text>
</a>
</g>
</g>
<!-- Node1&#45;&gt;Node2 -->
<g id="edge1" class="edge">
<title>Node1&#45;&gt;Node2</title>
<path fill="none" stroke="midnightblue" d="M224.2,-117.73C209.03,-107.68 190.96,-95.68 177.22,-86.58"/>
<polygon fill="midnightblue" stroke="midnightblue" points="222.47,-120.79 232.74,-123.4 226.34,-114.95 222.47,-120.79"/>
</g>
<!-- Node3 -->
<g id="node3" class="node">
<title>Node3</title>
<g id="a_node3"><a xlink:href="ads1115_2src_2ads1115_8cpp.html" target="_top" xlink:title=" ">
<polygon fill="white" stroke="black" points="0,-0.5 0,-19.5 140,-19.5 140,-0.5 0,-0.5"/>
<text text-anchor="middle" x="70" y="-7.5" font-family="Helvetica,sans-Serif" font-size="10.00">ads1115/src/ads1115.cpp</text>
</a>
</g>
</g>
<!-- Node1&#45;&gt;Node3 -->
<g id="edge4" class="edge">
<title>Node1&#45;&gt;Node3</title>
<path fill="none" stroke="midnightblue" d="M173.91,-123.76C133.32,-115.08 89.91,-102.57 77,-87 60.93,-67.62 64.86,-35.14 67.95,-19.69"/>
<polygon fill="midnightblue" stroke="midnightblue" points="173.37,-127.23 183.88,-125.83 174.8,-120.37 173.37,-127.23"/>
</g>
<!-- Node4 -->
<g id="node4" class="node">
<title>Node4</title>
<g id="a_node4"><a xlink:href="tests_2src_2ads1115_8cpp.html" target="_top" xlink:title=" ">
<polygon fill="white" stroke="black" points="181,-0.5 181,-19.5 303,-19.5 303,-0.5 181,-0.5"/>
<text text-anchor="middle" x="242" y="-7.5" font-family="Helvetica,sans-Serif" font-size="10.00">tests/src/ads1115.cpp</text>
</a>
</g>
</g>
<!-- Node1&#45;&gt;Node4 -->
<g id="edge6" class="edge">
<title>Node1&#45;&gt;Node4</title>
<path fill="none" stroke="midnightblue" d="M251.72,-113.51C249.02,-85.02 244.65,-38.94 242.83,-19.79"/>
<polygon fill="midnightblue" stroke="midnightblue" points="248.24,-113.85 252.67,-123.48 255.21,-113.19 248.24,-113.85"/>
</g>
<!-- Node5 -->
<g id="node5" class="node">
<title>Node5</title>
<g id="a_node5"><a xlink:href="ads1115_2src_2config_8cpp.html" target="_top" xlink:title=" ">
<polygon fill="white" stroke="black" points="282,-62 282,-81 410,-81 410,-62 282,-62"/>
<text text-anchor="middle" x="346" y="-69" font-family="Helvetica,sans-Serif" font-size="10.00">ads1115/src/config.cpp</text>
</a>
</g>
</g>
<!-- Node1&#45;&gt;Node5 -->
<g id="edge5" class="edge">
<title>Node1&#45;&gt;Node5</title>
<path fill="none" stroke="midnightblue" d="M282.58,-117.31C299.86,-105.1 320.98,-90.18 333.96,-81.01"/>
<polygon fill="midnightblue" stroke="midnightblue" points="280.11,-114.77 273.96,-123.4 284.15,-120.48 280.11,-114.77"/>
</g>
<!-- Node6 -->
<g id="node6" class="node">
<title>Node6</title>
<g id="a_node6"><a xlink:href="tests_2src_2config_8cpp.html" target="_top" xlink:title=" ">
<polygon fill="white" stroke="black" points="428,-62 428,-81 538,-81 538,-62 428,-62"/>
<text text-anchor="middle" x="483" y="-69" font-family="Helvetica,sans-Serif" font-size="10.00">tests/src/config.cpp</text>
</a>
</g>
</g>
<!-- Node1&#45;&gt;Node6 -->
<g id="edge7" class="edge">
<title>Node1&#45;&gt;Node6</title>
<path fill="none" stroke="midnightblue" d="M313.29,-120.67C358.05,-107.97 417.6,-91.06 452.95,-81.03"/>
<polygon fill="midnightblue" stroke="midnightblue" points="312.07,-117.38 303.41,-123.48 313.98,-124.11 312.07,-117.38"/>
</g>
<!-- Node2&#45;&gt;Node3 -->
<g id="edge2" class="edge">
<title>Node2&#45;&gt;Node3</title>
<path fill="none" stroke="midnightblue" d="M127.07,-50.48C111.92,-40 94.15,-27.71 82.51,-19.66"/>
<polygon fill="midnightblue" stroke="midnightblue" points="125.4,-53.59 135.62,-56.4 129.39,-47.83 125.4,-53.59"/>
</g>
<!-- Node2&#45;&gt;Node4 -->
<g id="edge3" class="edge">
<title>Node2&#45;&gt;Node4</title>
<path fill="none" stroke="midnightblue" d="M184.93,-50.48C200.08,-40 217.85,-27.71 229.49,-19.66"/>
<polygon fill="midnightblue" stroke="midnightblue" points="182.61,-47.83 176.38,-56.4 186.6,-53.59 182.61,-47.83"/>
</g>
</g>
</svg>
