<?xml version="1.0" encoding="UTF-8" standalone="no"?>
<!DOCTYPE svg PUBLIC "-//W3C//DTD SVG 1.1//EN"
 "http://www.w3.org/Graphics/SVG/1.1/DTD/svg11.dtd">
<!-- Generated by graphviz version 2.43.0 (0)
 -->
<!-- Title: ads1115/include Pages: 1 -->
<svg width="186pt" height="159pt"
 viewBox="0.00 0.00 186.00 159.00" xmlns="http://www.w3.org/2000/svg" xmlns:xlink="http://www.w3.org/1999/xlink">
<g id="graph0" class="graph" transform="scale(1 1) rotate(0) translate(4 155)">
<title>ads1115/include</title>
<polygon fill="white" stroke="transparent" points="-4,4 -4,-155 182,-155 182,4 -4,4"/>
<g id="clust1" class="cluster">
<title>clusterdir_5c8ea4bbad09e2b65f625dcc643da961</title>
<g id="a_clust1"><a xlink:href="dir_5c8ea4bbad09e2b65f625dcc643da961.html" target="_top" xlink:title="ads1115">
<polygon fill="#ddddee" stroke="black" points="8,-56 8,-143 170,-143 170,-56 8,-56"/>
<text text-anchor="middle" x="89" y="-131" font-family="Helvetica,sans-Serif" font-size="10.00">ads1115</text>
</a>
</g>
</g>
<g id="clust2" class="cluster">
<title>clusterdir_9be7a934f343de70972c2f94f0074921</title>
<g id="a_clust2"><a xlink:href="dir_9be7a934f343de70972c2f94f0074921.html" target="_top">
<polygon fill="#eeeeff" stroke="black" points="16,-64 16,-116 162,-116 162,-64 16,-64"/>
</a>
</g>
</g>
<!-- dir_9be7a934f343de70972c2f94f0074921 -->
<g id="node1" class="node">
<title>dir_9be7a934f343de70972c2f94f0074921</title>
<text text-anchor="middle" x="127" y="-87.5" font-family="Helvetica,sans-Serif" font-size="10.00">include</text>
</g>
<!-- dir_ad44d27370b2d687238fd2e0ea0a0a0d -->
<g id="node2" class="node">
<title>dir_ad44d27370b2d687238fd2e0ea0a0a0d</title>
<g id="a_node2"><a xlink:href="dir_ad44d27370b2d687238fd2e0ea0a0a0d.html" target="_top" xlink:title="ads1115">
<polygon fill="white" stroke="black" points="82,-108 24,-108 24,-72 82,-72 82,-108"/>
<text text-anchor="middle" x="53" y="-87.5" font-family="Helvetica,sans-Serif" font-size="10.00">ads1115</text>
</a>
</g>
</g>
<!-- dir_4fef79e7177ba769987a8da36c892c5f -->
<g id="node3" class="node">
<title>dir_4fef79e7177ba769987a8da36c892c5f</title>
<g id="a_node3"><a xlink:href="dir_4fef79e7177ba769987a8da36c892c5f.html" target="_top" xlink:title="build">
<polygon fill="white" stroke="red" points="80,-36 26,-36 26,0 80,0 80,-36"/>
<text text-anchor="middle" x="53" y="-15.5" font-family="Helvetica,sans-Serif" font-size="10.00">build</text>
</a>
</g>
</g>
<!-- dir_ad44d27370b2d687238fd2e0ea0a0a0d&#45;&gt;dir_4fef79e7177ba769987a8da36c892c5f -->
<g id="edge1" class="edge">
<title>dir_ad44d27370b2d687238fd2e0ea0a0a0d&#45;&gt;dir_4fef79e7177ba769987a8da36c892c5f</title>
<path fill="none" stroke="black" d="M53,-71.7C53,-63.98 53,-54.71 53,-46.11"/>
<polygon fill="black" stroke="black" points="56.5,-46.1 53,-36.1 49.5,-46.1 56.5,-46.1"/>
<g id="a_edge1&#45;headlabel"><a xlink:href="dir_000002_000006.html" target="_top" xlink:title="3">
<text text-anchor="middle" x="59.34" y="-47.2" font-family="Helvetica,sans-Serif" font-size="10.00">3</text>
</a>
</g>
</g>
</g>
</svg>
