<?xml version="1.0" encoding="UTF-8" standalone="no"?>
<!DOCTYPE svg PUBLIC "-//W3C//DTD SVG 1.1//EN"
 "http://www.w3.org/Graphics/SVG/1.1/DTD/svg11.dtd">
<!-- Generated by graphviz version 2.43.0 (0)
 -->
<!-- Title: ADS1115::util::from_device_repr Pages: 1 -->
<svg width="494pt" height="39pt"
 viewBox="0.00 0.00 494.00 39.00" xmlns="http://www.w3.org/2000/svg" xmlns:xlink="http://www.w3.org/1999/xlink">
<g id="graph0" class="graph" transform="scale(1 1) rotate(0) translate(4 35)">
<title>ADS1115::util::from_device_repr</title>
<polygon fill="white" stroke="transparent" points="-4,4 -4,-35 490,-35 490,4 -4,4"/>
<!-- Node1 -->
<g id="node1" class="node">
<title>Node1</title>
<g id="a_node1"><a xlink:title=" ">
<polygon fill="#bfbfbf" stroke="black" points="0,-0.5 0,-30.5 112,-30.5 112,-0.5 0,-0.5"/>
<text text-anchor="start" x="8" y="-18.5" font-family="Helvetica,sans-Serif" font-size="10.00">ADS1115::util::from</text>
<text text-anchor="middle" x="56" y="-7.5" font-family="Helvetica,sans-Serif" font-size="10.00">_device_repr</text>
</a>
</g>
</g>
<!-- Node2 -->
<g id="node2" class="node">
<title>Node2</title>
<g id="a_node2"><a xlink:href="namespaceADS1115_1_1util.html#a71a0e4fea781fc67e2fd0a1bba68bd47" target="_top" xlink:title=" ">
<polygon fill="white" stroke="black" points="148,-6 148,-25 309,-25 309,-6 148,-6"/>
<text text-anchor="middle" x="228.5" y="-13" font-family="Helvetica,sans-Serif" font-size="10.00">ADS1115::util::to_device_repr</text>
</a>
</g>
</g>
<!-- Node1&#45;&gt;Node2 -->
<g id="edge1" class="edge">
<title>Node1&#45;&gt;Node2</title>
<path fill="none" stroke="midnightblue" d="M112.36,-15.5C120.53,-15.5 129.13,-15.5 137.79,-15.5"/>
<polygon fill="midnightblue" stroke="midnightblue" points="137.96,-19 147.96,-15.5 137.96,-12 137.96,-19"/>
</g>
<!-- Node3 -->
<g id="node3" class="node">
<title>Node3</title>
<g id="a_node3"><a xlink:href="namespaceADS1115_1_1util.html#a65cdbc0fd822dd5fdcdb137cb574d2f2" target="_top" xlink:title=" ">
<polygon fill="white" stroke="black" points="345,-6 345,-25 486,-25 486,-6 345,-6"/>
<text text-anchor="middle" x="415.5" y="-13" font-family="Helvetica,sans-Serif" font-size="10.00">ADS1115::util::byte_swap</text>
</a>
</g>
</g>
<!-- Node2&#45;&gt;Node3 -->
<g id="edge2" class="edge">
<title>Node2&#45;&gt;Node3</title>
<path fill="none" stroke="midnightblue" d="M309.03,-15.5C317.52,-15.5 326.17,-15.5 334.66,-15.5"/>
<polygon fill="midnightblue" stroke="midnightblue" points="334.94,-19 344.94,-15.5 334.94,-12 334.94,-19"/>
</g>
</g>
</svg>
