<?xml version="1.0" encoding="UTF-8" standalone="no"?>
<!DOCTYPE svg PUBLIC "-//W3C//DTD SVG 1.1//EN"
 "http://www.w3.org/Graphics/SVG/1.1/DTD/svg11.dtd">
<!-- Generated by graphviz version 2.43.0 (0)
 -->
<!-- Title: ADS1115::util::to_device_repr Pages: 1 -->
<svg width="580pt" height="78pt"
 viewBox="0.00 0.00 580.00 77.50" xmlns="http://www.w3.org/2000/svg" xmlns:xlink="http://www.w3.org/1999/xlink">
<g id="graph0" class="graph" transform="scale(1 1) rotate(0) translate(4 73.5)">
<title>ADS1115::util::to_device_repr</title>
<polygon fill="white" stroke="transparent" points="-4,4 -4,-73.5 576,-73.5 576,4 -4,4"/>
<!-- Node1 -->
<g id="node1" class="node">
<title>Node1</title>
<g id="a_node1"><a xlink:title=" ">
<polygon fill="#bfbfbf" stroke="black" points="411,-22.5 411,-41.5 572,-41.5 572,-22.5 411,-22.5"/>
<text text-anchor="middle" x="491.5" y="-29.5" font-family="Helvetica,sans-Serif" font-size="10.00">ADS1115::util::to_device_repr</text>
</a>
</g>
</g>
<!-- Node2 -->
<g id="node2" class="node">
<title>Node2</title>
<g id="a_node2"><a xlink:href="namespaceADS1115_1_1util.html#a1e8045332952579d5d7cbfa65dadef4e" target="_top" xlink:title=" ">
<polygon fill="white" stroke="black" points="233.5,-39 233.5,-69 345.5,-69 345.5,-39 233.5,-39"/>
<text text-anchor="start" x="241.5" y="-57" font-family="Helvetica,sans-Serif" font-size="10.00">ADS1115::util::from</text>
<text text-anchor="middle" x="289.5" y="-46" font-family="Helvetica,sans-Serif" font-size="10.00">_device_repr</text>
</a>
</g>
</g>
<!-- Node1&#45;&gt;Node2 -->
<g id="edge1" class="edge">
<title>Node1&#45;&gt;Node2</title>
<path fill="none" stroke="midnightblue" d="M400.79,-41.87C381.97,-43.94 362.65,-46.06 345.55,-47.94"/>
<polygon fill="midnightblue" stroke="midnightblue" points="401.32,-45.33 410.88,-40.76 400.56,-38.37 401.32,-45.33"/>
</g>
<!-- Node4 -->
<g id="node4" class="node">
<title>Node4</title>
<g id="a_node4"><a xlink:href="classADS1115_1_1ADS1115.html#acdd00c300dac6435def5129587bc8a0b" target="_top" xlink:title=" ">
<polygon fill="white" stroke="black" points="204,-0.5 204,-19.5 375,-19.5 375,-0.5 204,-0.5"/>
<text text-anchor="middle" x="289.5" y="-7.5" font-family="Helvetica,sans-Serif" font-size="10.00">ADS1115::ADS1115::write_word</text>
</a>
</g>
</g>
<!-- Node1&#45;&gt;Node4 -->
<g id="edge3" class="edge">
<title>Node1&#45;&gt;Node4</title>
<path fill="none" stroke="midnightblue" d="M400.88,-22.14C392.3,-21.2 383.62,-20.24 375.1,-19.31"/>
<polygon fill="midnightblue" stroke="midnightblue" points="400.56,-25.63 410.88,-23.24 401.32,-18.67 400.56,-25.63"/>
</g>
<!-- Node3 -->
<g id="node3" class="node">
<title>Node3</title>
<g id="a_node3"><a xlink:href="classADS1115_1_1ADS1115.html#ad501fac6e16f20de275aeeffc82d0af0" target="_top" xlink:title=" ">
<polygon fill="white" stroke="black" points="0,-44.5 0,-63.5 168,-63.5 168,-44.5 0,-44.5"/>
<text text-anchor="middle" x="84" y="-51.5" font-family="Helvetica,sans-Serif" font-size="10.00">ADS1115::ADS1115::read_word</text>
</a>
</g>
</g>
<!-- Node2&#45;&gt;Node3 -->
<g id="edge2" class="edge">
<title>Node2&#45;&gt;Node3</title>
<path fill="none" stroke="midnightblue" d="M223.29,-54C205.71,-54 186.45,-54 168.03,-54"/>
<polygon fill="midnightblue" stroke="midnightblue" points="223.43,-57.5 233.43,-54 223.43,-50.5 223.43,-57.5"/>
</g>
</g>
</svg>
