<?xml version="1.0" encoding="UTF-8" standalone="no"?>
<!DOCTYPE svg PUBLIC "-//W3C//DTD SVG 1.1//EN"
 "http://www.w3.org/Graphics/SVG/1.1/DTD/svg11.dtd">
<!-- Generated by graphviz version 2.43.0 (0)
 -->
<!-- Title: ads1115/include/ads1115/parameters.hpp Pages: 1 -->
<svg width="528pt" height="229pt"
 viewBox="0.00 0.00 527.73 229.00" xmlns="http://www.w3.org/2000/svg" xmlns:xlink="http://www.w3.org/1999/xlink">
<g id="graph0" class="graph" transform="scale(1 1) rotate(0) translate(4 225)">
<title>ads1115/include/ads1115/parameters.hpp</title>
<polygon fill="white" stroke="transparent" points="-4,4 -4,-225 523.73,-225 523.73,4 -4,4"/>
<!-- Node1 -->
<g id="node1" class="node">
<title>Node1</title>
<g id="a_node1"><a xlink:title=" ">
<polygon fill="#bfbfbf" stroke="black" points="199.14,-190.5 199.14,-220.5 339.14,-220.5 339.14,-190.5 199.14,-190.5"/>
<text text-anchor="start" x="207.14" y="-208.5" font-family="Helvetica,sans-Serif" font-size="10.00">ads1115/include/ads1115</text>
<text text-anchor="middle" x="269.14" y="-197.5" font-family="Helvetica,sans-Serif" font-size="10.00">/parameters.hpp</text>
</a>
</g>
</g>
<!-- Node2 -->
<g id="node2" class="node">
<title>Node2</title>
<g id="a_node2"><a xlink:href="config_8hpp.html" target="_top" xlink:title=" ">
<polygon fill="white" stroke="black" points="199.14,-123.5 199.14,-153.5 339.14,-153.5 339.14,-123.5 199.14,-123.5"/>
<text text-anchor="start" x="207.14" y="-141.5" font-family="Helvetica,sans-Serif" font-size="10.00">ads1115/include/ads1115</text>
<text text-anchor="middle" x="269.14" y="-130.5" font-family="Helvetica,sans-Serif" font-size="10.00">/config.hpp</text>
</a>
</g>
</g>
<!-- Node1&#45;&gt;Node2 -->
<g id="edge1" class="edge">
<title>Node1&#45;&gt;Node2</title>
<path fill="none" stroke="midnightblue" d="M269.14,-180.11C269.14,-171.15 269.14,-161.32 269.14,-153.58"/>
<polygon fill="midnightblue" stroke="midnightblue" points="265.64,-180.4 269.14,-190.4 272.64,-180.4 265.64,-180.4"/>
</g>
<!-- Node4 -->
<g id="node4" class="node">
<title>Node4</title>
<g id="a_node4"><a xlink:href="ads1115_2src_2ads1115_8cpp.html" target="_top" xlink:title=" ">
<polygon fill="white" stroke="black" points="297.14,-0.5 297.14,-19.5 437.14,-19.5 437.14,-0.5 297.14,-0.5"/>
<text text-anchor="middle" x="367.14" y="-7.5" font-family="Helvetica,sans-Serif" font-size="10.00">ads1115/src/ads1115.cpp</text>
</a>
</g>
</g>
<!-- Node1&#45;&gt;Node4 -->
<g id="edge9" class="edge">
<title>Node1&#45;&gt;Node4</title>
<path fill="none" stroke="midnightblue" d="M349.04,-189.78C406.08,-174.6 478.74,-144.67 514.14,-87 537.36,-49.17 479.01,-29.32 429.09,-19.53"/>
<polygon fill="midnightblue" stroke="midnightblue" points="348.13,-186.4 339.31,-192.27 349.86,-193.18 348.13,-186.4"/>
</g>
<!-- Node5 -->
<g id="node5" class="node">
<title>Node5</title>
<g id="a_node5"><a xlink:href="tests_2src_2ads1115_8cpp.html" target="_top" xlink:title=" ">
<polygon fill="white" stroke="black" points="110.14,-0.5 110.14,-19.5 232.14,-19.5 232.14,-0.5 110.14,-0.5"/>
<text text-anchor="middle" x="171.14" y="-7.5" font-family="Helvetica,sans-Serif" font-size="10.00">tests/src/ads1115.cpp</text>
</a>
</g>
</g>
<!-- Node1&#45;&gt;Node5 -->
<g id="edge11" class="edge">
<title>Node1&#45;&gt;Node5</title>
<path fill="none" stroke="midnightblue" d="M188.85,-192.87C126.86,-179.16 45.27,-149.69 6.14,-87 -20.95,-43.59 52.58,-24.68 110.06,-16.65"/>
<polygon fill="midnightblue" stroke="midnightblue" points="188.5,-196.37 199.01,-195.02 189.95,-189.52 188.5,-196.37"/>
</g>
<!-- Node6 -->
<g id="node6" class="node">
<title>Node6</title>
<g id="a_node6"><a xlink:href="ads1115_2src_2config_8cpp.html" target="_top" xlink:title=" ">
<polygon fill="white" stroke="black" points="15.14,-62 15.14,-81 143.14,-81 143.14,-62 15.14,-62"/>
<text text-anchor="middle" x="79.14" y="-69" font-family="Helvetica,sans-Serif" font-size="10.00">ads1115/src/config.cpp</text>
</a>
</g>
</g>
<!-- Node1&#45;&gt;Node6 -->
<g id="edge10" class="edge">
<title>Node1&#45;&gt;Node6</title>
<path fill="none" stroke="midnightblue" d="M237.42,-184.88C222.87,-175.71 205.48,-164.52 190.14,-154 152.88,-128.45 110.13,-96.2 90.31,-81.07"/>
<polygon fill="midnightblue" stroke="midnightblue" points="235.74,-187.95 246.07,-190.3 239.46,-182.02 235.74,-187.95"/>
</g>
<!-- Node7 -->
<g id="node7" class="node">
<title>Node7</title>
<g id="a_node7"><a xlink:href="tests_2src_2config_8cpp.html" target="_top" xlink:title=" ">
<polygon fill="white" stroke="black" points="395.14,-62 395.14,-81 505.14,-81 505.14,-62 395.14,-62"/>
<text text-anchor="middle" x="450.14" y="-69" font-family="Helvetica,sans-Serif" font-size="10.00">tests/src/config.cpp</text>
</a>
</g>
</g>
<!-- Node1&#45;&gt;Node7 -->
<g id="edge12" class="edge">
<title>Node1&#45;&gt;Node7</title>
<path fill="none" stroke="midnightblue" d="M301.38,-184.97C315.9,-175.89 333.13,-164.75 348.14,-154 382.97,-129.06 421.97,-96.52 440,-81.2"/>
<polygon fill="midnightblue" stroke="midnightblue" points="299.39,-182.08 292.73,-190.33 303.07,-188.03 299.39,-182.08"/>
</g>
<!-- Node3 -->
<g id="node3" class="node">
<title>Node3</title>
<g id="a_node3"><a xlink:href="ads1115_8hpp.html" target="_top" xlink:title=" ">
<polygon fill="white" stroke="black" points="199.14,-56.5 199.14,-86.5 339.14,-86.5 339.14,-56.5 199.14,-56.5"/>
<text text-anchor="start" x="207.14" y="-74.5" font-family="Helvetica,sans-Serif" font-size="10.00">ads1115/include/ads1115</text>
<text text-anchor="middle" x="269.14" y="-63.5" font-family="Helvetica,sans-Serif" font-size="10.00">/ads1115.hpp</text>
</a>
</g>
</g>
<!-- Node2&#45;&gt;Node3 -->
<g id="edge2" class="edge">
<title>Node2&#45;&gt;Node3</title>
<path fill="none" stroke="midnightblue" d="M269.14,-113.11C269.14,-104.15 269.14,-94.32 269.14,-86.58"/>
<polygon fill="midnightblue" stroke="midnightblue" points="265.64,-113.4 269.14,-123.4 272.64,-113.4 265.64,-113.4"/>
</g>
<!-- Node2&#45;&gt;Node4 -->
<g id="edge5" class="edge">
<title>Node2&#45;&gt;Node4</title>
<path fill="none" stroke="midnightblue" d="M311.45,-118.44C324.94,-110.48 338.79,-100.01 348.14,-87 363.07,-66.24 366.32,-34.99 366.99,-19.84"/>
<polygon fill="midnightblue" stroke="midnightblue" points="309.72,-115.4 302.68,-123.31 313.12,-121.52 309.72,-115.4"/>
</g>
<!-- Node2&#45;&gt;Node5 -->
<g id="edge7" class="edge">
<title>Node2&#45;&gt;Node5</title>
<path fill="none" stroke="midnightblue" d="M226.83,-118.44C213.34,-110.48 199.5,-100.01 190.14,-87 175.21,-66.24 171.96,-34.99 171.29,-19.84"/>
<polygon fill="midnightblue" stroke="midnightblue" points="225.16,-121.52 235.6,-123.31 228.56,-115.4 225.16,-121.52"/>
</g>
<!-- Node2&#45;&gt;Node6 -->
<g id="edge6" class="edge">
<title>Node2&#45;&gt;Node6</title>
<path fill="none" stroke="midnightblue" d="M218.3,-120.11C181.34,-107.46 132.9,-90.89 104.01,-81.01"/>
<polygon fill="midnightblue" stroke="midnightblue" points="217.32,-123.47 227.91,-123.4 219.59,-116.85 217.32,-123.47"/>
</g>
<!-- Node2&#45;&gt;Node7 -->
<g id="edge8" class="edge">
<title>Node2&#45;&gt;Node7</title>
<path fill="none" stroke="midnightblue" d="M318.02,-119.95C353.18,-107.32 399.04,-90.85 426.45,-81.01"/>
<polygon fill="midnightblue" stroke="midnightblue" points="316.64,-116.72 308.42,-123.4 319.01,-123.31 316.64,-116.72"/>
</g>
<!-- Node3&#45;&gt;Node4 -->
<g id="edge3" class="edge">
<title>Node3&#45;&gt;Node4</title>
<path fill="none" stroke="midnightblue" d="M301.15,-51.07C318.62,-40.46 339.37,-27.86 352.88,-19.66"/>
<polygon fill="midnightblue" stroke="midnightblue" points="299.1,-48.22 292.37,-56.4 302.73,-54.2 299.1,-48.22"/>
</g>
<!-- Node3&#45;&gt;Node5 -->
<g id="edge4" class="edge">
<title>Node3&#45;&gt;Node5</title>
<path fill="none" stroke="midnightblue" d="M237.14,-51.07C219.67,-40.46 198.91,-27.86 185.4,-19.66"/>
<polygon fill="midnightblue" stroke="midnightblue" points="235.55,-54.2 245.92,-56.4 239.19,-48.22 235.55,-54.2"/>
</g>
</g>
</svg>
